<svg xmlns="http://www.w3.org/2000/svg" width="36" height="16" fill="none" xmlns:v="https://vecta.io/nano"><g clip-path="url(#A)"><g fill="#1756c2"><path d="M9.262 3.26c-.371 0-.594.288-.594.698v3.143c0 .402.217.694.589.694s.591-.292.591-.694V3.958c0-.41-.226-.698-.591-.698m2.774 1.246h-.276v-.172c0-.194.113-.275.411-.242.317.03.385-.172.385-.333a.4.4 0 0 0-.032-.164.41.41 0 0 0-.096-.137c-.208-.198-.729-.198-.729-.198a1.34 1.34 0 0 0-.792.233c-.317.247-.29.698-.29.698v.315h-.05c-.056-.004-.111.003-.164.022a.41.41 0 0 0-.142.085c-.041.038-.074.083-.096.134a.41.41 0 0 0-.035.161c0 .272.257.397.46.397h.027v1.876a.57.57 0 0 0 .032.236.58.58 0 0 0 .322.335.57.57 0 0 0 .234.042c.397 0 .553-.281.553-.595V5.305h.278c.153 0 .458-.075.458-.386s-.24-.418-.458-.418m3.321-.101a.55.55 0 0 0-.247.055c-.077.038-.144.093-.196.161a1.24 1.24 0 0 0-.707-.216c-1.202 0-1.733.9-1.733 1.776 0 .933.642 1.655 1.733 1.655a1.3 1.3 0 0 0 .705-.217c.051.069.118.125.196.163a.54.54 0 0 0 .249.054c.374 0 .587-.288.587-.694V5.098c0-.4-.214-.698-.587-.698zM13.64 6.131c0-.743.36-.875.603-.875h.029c.279.022.497.207.497.907s-.237.826-.483.839h-.037c-.276 0-.609-.129-.609-.871zm-5.421.771L7.117 3.753a.63.63 0 0 0-.225-.315c-.199-.15-.623-.141-.623-.141s-.419-.01-.621.141c-.106.079-.183.189-.221.315L4.315 6.902c-.069.184-.103.4 0 .578a.67.67 0 0 0 .233.226.66.66 0 0 0 .312.089c.126.008.251-.029.353-.103s.175-.182.207-.304l.141-.456h1.414l.139.456c.032.122.104.229.206.303s.226.111.352.104a.63.63 0 0 0 .544-.315.67.67 0 0 0 0-.578h.004zm-2.39-.943l.439-1.435.441 1.435h-.88z"/></g><path d="M29.205 11.204H4.254v.539h24.951c.365-.001.717-.13.996-.365s.466-.561.528-.92c-.178.235-.409.426-.673.556a1.9 1.9 0 0 1-.851.197" fill="#efcf00"/><g fill="#d60f27"><path d="M30.746 9.289v-.432H5.8A1.55 1.55 0 0 0 4.258 10.4v.442h24.946A1.54 1.54 0 0 0 30.746 9.3m-9.703-4.933c-.631 0-1.245.846-1.462 1.172a2.27 2.27 0 0 1 .06-.317c.046-.216.086-.514-.06-.7-.048-.054-.108-.096-.174-.123a.46.46 0 0 0-.211-.032c-.585 0-1.163.745-1.414 1.11l.087-.317c.039-.179.114-.459-.006-.622-.043-.052-.099-.093-.162-.118a.41.41 0 0 0-.199-.027 2.01 2.01 0 0 0-.593.129l-.062.028.057.033s.085.085.019.529a18.59 18.59 0 0 1-.466 2.087.51.51 0 0 0 .027.446.49.49 0 0 0 .411.163 1.28 1.28 0 0 0 .493-.096l.037-.009-.029-.039s-.129-.198.041-.577c.585-1.299 1.058-1.817 1.189-1.906.032-.014.05-.032.072-.032.019.008.021.013.022.018.014.006.017.039.014.068-.089.576-.21 1.147-.361 1.71l-.069.288a.53.53 0 0 0-.027.226.54.54 0 0 0 .07.216c.047.046.103.081.165.104a.45.45 0 0 0 .193.025c.173-.004.343-.037.504-.099l.048-.019-.036-.032c0-.012-.129-.176.051-.578.432-1 1.015-1.781 1.167-1.894a.17.17 0 0 1 .093-.041s.008 0 .017.014c.016.033.021.071.013.107 0 .021-.019.082-.034.175l-.323 1.559c-.05.297-.026.52.083.643a.52.52 0 0 0 .182.125c.069.028.143.041.218.037.207-.012.408-.078.582-.191l.044-.03-.04-.027s-.211-.197-.107-.78l.238-1.168.075-.375V5.2c.039-.18.095-.514-.059-.693a.44.44 0 0 0-.171-.121c-.066-.026-.137-.035-.208-.028"/><path d="M24.734 4.402a.59.59 0 0 0-.424.145 1.3 1.3 0 0 0-.649-.18c-.274 0-.542.08-.771.23a2.47 2.47 0 0 0-.863 1.013c-.532 1.036-.276 1.793-.144 1.978a.57.57 0 0 0 .514.234c.329 0 .771-.129 1.433-1.176a4.1 4.1 0 0 0-.042.532c0 .571.402.631.568.631.429 0 .58-.2.58-.207l.018-.022-.018-.022s-.2-.206-.071-1.267c.071-.593.231-1.172.475-1.717l.017-.027-.03-.019a1.73 1.73 0 0 0-.588-.129l-.003.003zm-1.857 2.643c-.088 0-.128-.15-.128-.307s.085-1.149.499-1.65c.038-.045.085-.082.137-.109a.45.45 0 0 1 .169-.048c.264 0 .514.284.574.357a7.46 7.46 0 0 1-1.095 1.662c-.037.052-.093.087-.156.098m5.148-2.681c-.464 0-1.028.771-1.257 1.124l.14-.59a.46.46 0 0 0 .012-.187.45.45 0 0 0-.064-.176c-.052-.05-.114-.088-.182-.112a.49.49 0 0 0-.212-.026 2.08 2.08 0 0 0-.594.12l-.046.019.041.035s.086.128.033.554c-.075.466-.37 1.627-.495 2.096-.029.068-.042.142-.038.216a.47.47 0 0 0 .063.21c.106.143.311.159.452.159.168 0 .335-.033.491-.096l.046-.009-.028-.039s-.114-.182.017-.529c.355-.9.749-1.414.985-1.597a.3.3 0 0 1 .165-.062c.128 0 .212.147.212.147l.02.036.029-.03a1.94 1.94 0 0 0 .426-.619c.055-.141.128-.393.019-.538a.26.26 0 0 0-.104-.085.25.25 0 0 0-.132-.021zm2.678.419a3.51 3.51 0 0 1-.879.075h-.115c.019-.111.098-.424.181-.722a.45.45 0 0 0 .037-.214.45.45 0 0 0-.066-.207.45.45 0 0 0-.178-.109.46.46 0 0 0-.208-.019c-.221.015-.44.058-.65.129l-.055.017.047.044c.144.148-.012.856-.079 1.119-.008.014-.372 1.414-.372 2.092 0 .563.308.842.899.842.342.007.676-.102.949-.308.059-.048.104-.112.129-.183s.03-.149.014-.224-.037-.139-.072-.202l-.019-.041-.035.032a1.14 1.14 0 0 1-.37.202.84.84 0 0 1-.238.046c-.077-.002-.15-.033-.206-.085-.136-.14-.049-.643-.019-.803l.182-.848h.514c.083.007.166-.003.245-.029s.151-.069.213-.125a.61.61 0 0 0 .145-.2.59.59 0 0 0 .052-.241v-.051l-.047.017z"/></g></g><defs><clipPath id="A"><path fill="#fff" transform="translate(4.25 3.26)" d="M0 0h26.5v8.482H0z"/></clipPath></defs></svg>