<svg width="32" height="8" viewBox="0 0 32 8" fill="none" xmlns="http://www.w3.org/2000/svg">
<g clip-path="url(#clip0_36_14001)">
<path fill-rule="evenodd" clip-rule="evenodd" d="M3.33706 0.453624H6.19702C6.31023 0.447016 6.42172 0.483713 6.50886 0.556271C6.596 0.628831 6.65229 0.73182 6.66634 0.844353C6.66794 0.876265 6.66794 0.908238 6.66634 0.940153V7.05723C6.66634 7.34789 6.47902 7.55238 6.20887 7.55238H0.45127C0.183248 7.55238 0.00026199 7.35004 0.00026199 7.05723C0.00026199 5.03078 0.00026199 3.0043 0.00026199 0.977822C-0.0083491 0.663519 0.196164 0.448242 0.487864 0.448242C1.43724 0.456853 2.38553 0.453624 3.33706 0.453624ZM5.69111 2.77647C5.53962 3.09092 5.29445 3.35075 4.98932 3.52025C4.93873 3.54931 4.91505 3.55684 4.89889 3.48688C4.83754 3.28452 4.76757 3.08539 4.69871 2.89164C4.55983 2.48153 4.43497 2.06282 4.28428 1.6581C4.24905 1.56245 4.19165 1.4765 4.11682 1.40728C4.04199 1.33806 3.95183 1.28753 3.85372 1.25984C3.58929 1.18909 3.3135 1.17117 3.04213 1.20709C2.67724 1.24907 2.44258 1.42237 2.31987 1.80987C2.08737 2.54719 1.83442 3.28237 1.58901 4.01431C1.39956 4.60094 1.20151 5.18433 1.01637 5.76991C0.959878 5.92111 0.9461 6.08496 0.976546 6.24349C1.01149 6.39684 1.0948 6.53487 1.2142 6.6372C1.33359 6.73953 1.48274 6.80076 1.6396 6.81185C1.79458 6.82954 1.95064 6.78945 2.07793 6.69931C2.20523 6.60914 2.29482 6.47524 2.32956 6.32316C2.39199 6.12294 2.46088 5.91845 2.50394 5.71607C2.51568 5.64914 2.5419 5.58555 2.58076 5.52976C2.61961 5.47398 2.67017 5.42739 2.7289 5.39317C2.73966 5.37055 2.76119 5.3641 2.78703 5.34903C3.13685 5.10576 3.52866 5.0401 3.94091 5.02609C3.98935 5.02609 3.98935 5.06272 3.99581 5.09931C4.10345 5.50833 4.21109 5.91089 4.33488 6.31776C4.36218 6.44651 4.42961 6.56331 4.52747 6.65129C4.62537 6.73932 4.74863 6.79401 4.87952 6.80755C4.99147 6.82253 5.10541 6.81135 5.21229 6.77489C5.31922 6.73839 5.41619 6.67758 5.49561 6.5972C5.57498 6.51685 5.63465 6.41921 5.66993 6.31186C5.70516 6.20455 5.71499 6.09049 5.69866 5.9787C5.68145 5.89908 5.66204 5.80325 5.64051 5.72468C5.51675 5.37055 5.39724 5.00567 5.27994 4.6483C5.27238 4.62658 5.27031 4.60334 5.27386 4.58062C5.27745 4.5579 5.28656 4.53642 5.3004 4.51806C5.42438 4.37788 5.5205 4.2153 5.58346 4.03907C5.72879 3.63219 5.70297 3.20595 5.69111 2.77431" fill="#E82E2D"/>
<path fill-rule="evenodd" clip-rule="evenodd" d="M20.0716 3.01805C20.275 2.92634 20.4945 2.87585 20.7175 2.86951C20.9467 2.86951 21.0791 3.00943 21.0684 3.25808C21.0547 3.44649 21.0186 3.6326 20.9607 3.81242C20.9607 3.83072 20.9467 3.85332 20.9607 3.88131C21.0667 3.71363 21.1865 3.5552 21.3192 3.4077C21.4736 3.21341 21.6645 3.05108 21.881 2.92978C21.9897 2.86808 22.1124 2.83512 22.2373 2.83398C22.5312 2.84475 22.6776 3.01805 22.683 3.32805C22.6764 3.50346 22.6515 3.67771 22.6086 3.84794C22.6006 3.88849 22.5949 3.92946 22.5914 3.97065C22.6625 3.87485 22.7131 3.79304 22.7744 3.70801C22.9627 3.42545 23.2035 3.18171 23.4838 2.99006C23.6358 2.88256 23.8201 2.83051 24.0058 2.8426C24.2469 2.86951 24.3728 3.01805 24.3804 3.28284C24.3791 3.47914 24.3568 3.67473 24.3137 3.86624C24.2168 4.34523 24.1178 4.82313 24.0424 5.29786C24.0184 5.46196 24.025 5.62911 24.0618 5.79081C24.0795 5.87778 24.1226 5.95753 24.1856 6.02011C23.9638 6.1654 23.7271 6.26874 23.4601 6.21059C23.2642 6.1654 23.1587 6.01471 23.1372 5.78005C23.1348 5.54843 23.159 5.31727 23.2093 5.09117C23.3029 4.6294 23.3934 4.18162 23.4816 3.72739C23.4885 3.69995 23.4914 3.67168 23.4902 3.64343C23.4816 3.61329 23.4612 3.60253 23.4289 3.62298C23.3804 3.64182 23.3392 3.67579 23.3115 3.71985C23.0281 4.07954 22.7828 4.46769 22.5796 4.87803C22.472 5.08362 22.3805 5.30106 22.2965 5.51205C22.2265 5.70042 22.1555 5.8974 22.2588 6.08898C22.2793 6.11805 22.2502 6.11805 22.2352 6.13202C22.0438 6.21612 21.8321 6.24266 21.6259 6.20844C21.4376 6.16434 21.3461 5.99319 21.3805 5.77144C21.4257 5.48513 21.5054 5.21173 21.5602 4.93187C21.6549 4.55471 21.7293 4.17276 21.7831 3.78766C21.7949 3.73062 21.839 3.65635 21.7712 3.62298C21.7196 3.59391 21.67 3.66173 21.6335 3.70263C21.3953 3.982 21.1925 4.28965 21.0296 4.61863C20.8778 4.9028 20.7476 5.18696 20.6195 5.48513C20.5345 5.68101 20.4753 5.87478 20.5732 6.08898C20.5937 6.11805 20.5732 6.11805 20.556 6.13202C20.3666 6.21789 20.1554 6.24342 19.9511 6.20523C19.7067 6.14818 19.6099 5.94905 19.682 5.66704C19.7896 5.21603 19.908 4.77904 20.0049 4.33339C20.076 3.99835 20.1242 3.65886 20.1491 3.31728C20.1556 3.21933 20.176 3.09339 20.0619 3.01482" fill="#E82E2D"/>
<path fill-rule="evenodd" clip-rule="evenodd" d="M12.1635 5.59191C12.1681 5.67336 12.1555 5.75488 12.1268 5.83122C12.098 5.90759 12.0537 5.97714 11.9966 6.03537C11.9394 6.0936 11.8708 6.1393 11.795 6.16952C11.7192 6.19973 11.6379 6.21378 11.5564 6.21083C11.2949 6.18931 11.1452 6.06444 11.071 5.78028C11.0419 5.66508 10.9988 5.54778 10.9633 5.42827C10.9547 5.38633 10.9396 5.35725 10.8858 5.35725C10.4908 5.36261 10.1001 5.36261 9.70827 5.35725C9.65012 5.35725 9.63936 5.38417 9.6232 5.42506C9.58771 5.54453 9.54462 5.65757 9.51559 5.77168C9.41546 6.1839 9.08501 6.25817 8.83207 6.18715C8.75696 6.16614 8.68691 6.13002 8.62628 6.08098C8.5656 6.03199 8.51559 5.97106 8.4793 5.90202C8.44306 5.83299 8.42124 5.75729 8.41525 5.67952C8.4093 5.60175 8.41926 5.5236 8.44457 5.44983C8.54467 5.09137 8.67383 4.7448 8.79009 4.39173C9.01614 3.70822 9.25726 3.03225 9.47251 2.33691C9.58015 2.0043 9.75882 1.82347 10.0947 1.79871C10.2829 1.77904 10.4731 1.79289 10.6565 1.83962C10.7546 1.85939 10.8453 1.90612 10.9183 1.97457C10.9913 2.04303 11.0438 2.13048 11.0699 2.22711C11.2227 2.68996 11.3766 3.15173 11.5263 3.60489C11.72 4.18721 11.9052 4.74695 12.0978 5.32712C12.1297 5.41473 12.1514 5.50575 12.1624 5.59837L12.1635 5.59191ZM9.89229 4.39711H10.6243C10.6846 4.40787 10.6942 4.38634 10.6737 4.31853C10.5844 4.00961 10.4919 3.69423 10.4003 3.38423C10.3735 3.26583 10.3368 3.15927 10.3035 3.03656H10.2884C10.1571 3.48756 10.0215 3.94072 9.89229 4.39711Z" fill="#1560AA"/>
<path fill-rule="evenodd" clip-rule="evenodd" d="M19.2364 4.56325C19.2299 4.94538 19.2536 5.32533 19.2299 5.70207C19.1858 6.14447 18.7897 6.3888 18.442 6.19182C18.39 6.16439 18.3434 6.12793 18.3042 6.08417C18.2816 6.04008 18.2601 6.04544 18.2224 6.0702C17.3279 6.59548 16.1772 5.98623 16.0449 4.9034C15.9771 4.34367 16.0793 3.827 16.427 3.40614C16.7144 3.04555 17.0922 2.90347 17.5184 2.86795C17.768 2.8548 18.0158 2.91665 18.2299 3.04555C18.2601 3.06708 18.2826 3.07892 18.3107 3.04017C18.3797 2.95887 18.4738 2.90267 18.5781 2.88028C18.6824 2.8579 18.7912 2.87059 18.8876 2.91638C19.1029 2.99065 19.203 3.18225 19.2299 3.41798C19.2536 3.75058 19.2364 4.08426 19.2364 4.41794V4.56218V4.56325ZM17.653 5.42973C17.8898 5.42973 18.0114 5.33073 18.0835 5.08852C18.1436 4.87888 18.1634 4.65972 18.1417 4.4427C18.142 4.27527 18.1052 4.10985 18.034 3.95832C18.0128 3.89963 17.9763 3.8477 17.9282 3.80794C17.8801 3.76819 17.8222 3.74206 17.7606 3.73228C17.635 3.7035 17.5032 3.72546 17.3938 3.79339C17.2843 3.86133 17.2061 3.96973 17.1761 4.09503C17.0765 4.41026 17.0765 4.74853 17.1761 5.06379C17.2 5.17102 17.2609 5.26647 17.3481 5.33339C17.4352 5.40028 17.5432 5.43441 17.653 5.42973Z" fill="#1161AB"/>
<path fill-rule="evenodd" clip-rule="evenodd" d="M28.0746 5.12876C27.9356 5.33781 27.7846 5.53871 27.6226 5.73045C27.4352 5.94575 27.2318 6.14808 26.952 6.20838C26.8357 6.2359 26.7149 6.23775 26.5978 6.21374C26.3255 6.15669 26.1899 5.95436 26.1511 5.68632C26.0792 5.25176 26.1245 4.80586 26.2825 4.39466C26.4281 3.95404 26.6855 3.55871 27.0295 3.24723C27.4493 2.87265 27.9142 2.80483 28.4287 3.03195C28.4524 3.04056 28.488 3.0847 28.4944 3.02227C28.5404 2.81456 28.5607 2.60199 28.5547 2.38935C28.5396 2.24834 28.5396 2.24834 28.6742 2.18053C28.8235 2.10581 28.9896 2.07095 29.1564 2.07935C29.4147 2.09765 29.5471 2.26664 29.4998 2.53251C29.4427 2.84143 29.3684 3.15036 29.3049 3.45067C29.1855 3.99963 29.0714 4.53782 29.0003 5.09323C28.9473 5.39465 28.9798 5.70484 29.094 5.98879C29.1123 6.01892 29.094 6.02968 29.0746 6.04584C28.9774 6.13897 28.8554 6.20193 28.7232 6.22716C28.591 6.25236 28.4544 6.23872 28.3298 6.18792C28.2442 6.14669 28.1722 6.08196 28.1221 6.00136C28.072 5.92072 28.0458 5.82755 28.0466 5.73261C28.0415 5.53242 28.0501 5.33207 28.0725 5.13306L28.0746 5.12876ZM27.0736 5.09648C27.07 5.17488 27.074 5.25345 27.0854 5.3311C27.108 5.48398 27.1845 5.51196 27.2943 5.41617C27.401 5.32447 27.4912 5.21526 27.5612 5.09323C27.8152 4.74877 28.0014 4.36344 28.2135 4.00608C28.3566 3.77035 28.3459 3.74883 28.1252 3.59598C28.1252 3.58737 28.1134 3.58199 28.1102 3.57445C27.8636 3.40761 27.657 3.44636 27.4826 3.6907C27.4509 3.72833 27.4254 3.77086 27.4073 3.81664C27.2186 4.21808 27.1055 4.65083 27.0736 5.09323" fill="#E82E2D"/>
<path fill-rule="evenodd" clip-rule="evenodd" d="M15.3581 4.77071V5.60381C15.3593 5.65914 15.3571 5.7145 15.3517 5.76957C15.2968 6.07098 15.0923 6.23564 14.806 6.20981C14.496 6.18829 14.3108 5.9784 14.3043 5.65331C14.2936 5.39067 14.3043 5.11512 14.2957 4.84713C14.2957 4.5242 14.2957 4.18622 14.3043 3.86115C14.3043 3.79764 14.2957 3.7675 14.2258 3.75351C14.1578 3.74997 14.0916 3.72976 14.0333 3.69466C13.9749 3.65956 13.926 3.61065 13.891 3.55222C13.8603 3.49933 13.8428 3.43979 13.84 3.37867C13.8372 3.31755 13.8492 3.25667 13.875 3.20119C13.9008 3.14571 13.9396 3.09727 13.9881 3.06001C14.0366 3.02274 14.0934 2.99773 14.1537 2.98712C14.2957 2.96021 14.3054 2.96021 14.2957 2.80414C14.2911 2.67907 14.2997 2.55386 14.3216 2.43063C14.3448 2.29957 14.4017 2.17683 14.4869 2.07451C14.572 1.97221 14.6824 1.89387 14.807 1.84723C15.1185 1.72844 15.4623 1.72538 15.7758 1.83862C15.8741 1.8611 15.9609 1.91839 16.0203 1.9999C16.0796 2.08141 16.1075 2.18164 16.0987 2.28209C16.1022 2.32269 16.0967 2.36357 16.0827 2.40182C16.0686 2.44006 16.0463 2.47475 16.0173 2.50341C15.9884 2.53208 15.9534 2.55401 15.915 2.56766C15.8766 2.58131 15.8357 2.58635 15.7951 2.5824C15.7149 2.57648 15.6343 2.57648 15.554 2.5824C15.4281 2.59209 15.3689 2.66098 15.3603 2.79768C15.3603 2.97851 15.3603 2.98174 15.5217 2.97851C15.5956 2.97746 15.6695 2.98286 15.7424 2.99466C15.826 3.01052 15.9014 3.05517 15.9555 3.12085C16.0096 3.18653 16.0389 3.26909 16.0384 3.35417C16.0481 3.4366 16.0285 3.5198 15.983 3.58925C15.9376 3.6587 15.8692 3.70998 15.7898 3.73413C15.6735 3.76629 15.5527 3.77831 15.4324 3.76966C15.3721 3.75997 15.3603 3.7815 15.3603 3.84608V4.77286" fill="#1260AA"/>
<path fill-rule="evenodd" clip-rule="evenodd" d="M12.5133 3.99155C12.5133 3.44582 12.5133 2.9044 12.5133 2.35759C12.5064 2.22936 12.5423 2.10246 12.6154 1.99685C12.6885 1.89124 12.7945 1.81292 12.917 1.77419C13.2528 1.67947 13.5327 1.89583 13.5908 2.2618C13.5992 2.32823 13.6043 2.39505 13.6059 2.462V5.5071C13.6069 5.5939 13.596 5.68049 13.5736 5.76434C13.4993 6.0539 13.3055 6.22396 13.0354 6.21535C12.7652 6.20674 12.5822 6.02483 12.5284 5.73206C12.5142 5.64711 12.5084 5.5609 12.5112 5.47482V3.99155H12.5133Z" fill="#1560AA"/>
<path fill-rule="evenodd" clip-rule="evenodd" d="M30.6773 6.00516C30.574 6.092 30.4533 6.15555 30.3233 6.19142C30.1932 6.22724 30.057 6.23459 29.9238 6.2129C29.7171 6.18277 29.5944 6.01917 29.5837 5.78235C29.5753 5.53845 29.6051 5.29476 29.6719 5.0601C29.7634 4.60479 29.8775 4.15916 29.9529 3.70062C29.9907 3.53085 29.9948 3.35529 29.9647 3.18395C29.966 3.15937 29.9608 3.13487 29.9496 3.11292C29.9055 2.99774 29.9055 2.99774 30.0261 2.96545C30.2278 2.89311 30.4416 2.86058 30.6557 2.86965C30.9141 2.91809 31.0153 3.08493 30.9485 3.34218C30.8624 3.67909 30.7698 4.01493 30.6988 4.35614C30.6144 4.69952 30.5518 5.04786 30.5115 5.39916C30.5082 5.49106 30.5103 5.58305 30.518 5.67471C30.5295 5.80046 30.5861 5.91781 30.6773 6.00516Z" fill="#E82E2D"/>
<path fill-rule="evenodd" clip-rule="evenodd" d="M25.0349 3.41854C25.0437 3.28966 25.0193 3.16067 24.9638 3.04396C24.952 3.01705 24.9574 3.00521 24.9864 2.99122C25.2372 2.90941 25.4913 2.83622 25.7571 2.89112C25.9584 2.92879 26.0488 3.08486 25.9939 3.31091C25.9337 3.60691 25.8562 3.88677 25.7787 4.18062C25.6864 4.56732 25.6146 4.95857 25.5634 5.35282C25.5456 5.51136 25.5588 5.67183 25.6021 5.82535C25.6172 5.85548 25.6258 5.8824 25.642 5.91468C25.6581 5.94696 25.7119 5.9868 25.7033 6.00186C25.6861 6.06001 25.6334 6.07613 25.5957 6.09335C25.4319 6.1931 25.2413 6.23973 25.0499 6.22682C24.7658 6.19669 24.6194 6.03309 24.6194 5.72095C24.6333 5.48524 24.6693 5.25133 24.727 5.02237C24.8153 4.57028 24.9423 4.12573 25.0144 3.66611C25.0263 3.57354 25.0317 3.46698 25.0403 3.41854" fill="#E82E2D"/>
<path fill-rule="evenodd" clip-rule="evenodd" d="M25.84 1.77441H25.8949C26.1672 1.79271 26.2738 1.96493 26.2027 2.24372C26.1914 2.30444 26.1635 2.36083 26.1221 2.40664C26.0807 2.45243 26.0273 2.48584 25.968 2.50312C25.8198 2.55598 25.6624 2.57832 25.5052 2.56879C25.2899 2.52788 25.2232 2.44608 25.276 2.2125C25.2956 2.1664 25.3058 2.11678 25.3058 2.06665C25.3058 2.01652 25.2956 1.96691 25.276 1.9208C25.2523 1.88528 25.305 1.89066 25.319 1.88528C25.4834 1.81403 25.6608 1.77739 25.84 1.77764" fill="#E92D2E"/>
<path fill-rule="evenodd" clip-rule="evenodd" d="M30.2166 1.89578C30.4523 1.80967 30.6902 1.7354 30.9345 1.78815C31.1293 1.82151 31.2101 1.97436 31.1638 2.1821C31.1587 2.25906 31.1286 2.33224 31.0781 2.39053C31.0275 2.44881 30.9594 2.48901 30.8839 2.50502C30.7363 2.55544 30.5798 2.57486 30.4243 2.56207C30.2392 2.51578 30.1778 2.43182 30.2306 2.23915C30.2342 2.19657 30.2418 2.15442 30.2531 2.11321C30.2621 2.07674 30.2635 2.03881 30.2572 2.00178C30.2509 1.96475 30.2371 1.92941 30.2166 1.89794" fill="#E92D2E"/>
<path fill-rule="evenodd" clip-rule="evenodd" d="M5.69118 2.77683C5.70299 3.20739 5.72776 3.63794 5.58353 4.04159C5.52133 4.21796 5.42555 4.38061 5.30153 4.52058C5.28773 4.53813 5.27815 4.5586 5.27347 4.58043C5.26882 4.60226 5.2692 4.62487 5.2746 4.64652C5.39196 4.99848 5.51142 5.3634 5.63518 5.72289C5.65565 5.8015 5.67502 5.89729 5.69333 5.97692C5.7097 6.08882 5.69983 6.20297 5.66455 6.31036C5.62928 6.4178 5.56948 6.51557 5.48994 6.59591C5.41044 6.6763 5.3133 6.73706 5.20624 6.77348C5.09919 6.8099 4.98517 6.82095 4.87314 6.80576C4.74232 6.79217 4.61923 6.73744 4.52155 6.64942C4.42386 6.5614 4.35664 6.44468 4.32955 6.31597C4.20576 5.9091 4.10135 5.50654 3.99048 5.09752C3.98403 5.06093 3.98403 5.02435 3.93559 5.02435C3.52333 5.03941 3.13045 5.10507 2.7817 5.34724C2.75587 5.36231 2.73434 5.36876 2.72358 5.39138C2.66456 5.42527 2.61378 5.47177 2.57488 5.5276C2.53598 5.58342 2.50993 5.64718 2.49861 5.71428C2.45556 5.91666 2.39097 6.12115 2.32424 6.32138C2.28949 6.47346 2.1999 6.60735 2.07261 6.69753C1.94532 6.78766 1.78926 6.82775 1.63427 6.81007C1.47741 6.79897 1.32827 6.73774 1.20888 6.63541C1.08948 6.53308 1.00616 6.39505 0.971223 6.24171C0.941326 6.08317 0.955095 5.91944 1.01105 5.76812C1.20049 5.1847 1.39962 4.60131 1.5923 4.01468C1.83771 3.28274 2.09066 2.54757 2.32316 1.81024C2.44587 1.42382 2.68052 1.24944 3.04542 1.20747C3.31679 1.17154 3.59258 1.18946 3.85701 1.26021C3.95512 1.2879 4.04527 1.33842 4.12011 1.40764C4.19494 1.47686 4.25232 1.56282 4.28756 1.65847C4.43825 2.06642 4.56311 2.48191 4.70198 2.89201C4.77085 3.08576 4.84081 3.28489 4.90217 3.48725C4.91943 3.55722 4.94095 3.54968 4.9926 3.52062C5.29773 3.35112 5.5429 3.09129 5.69439 2.77683H5.69118ZM2.84414 4.41617C3.07224 4.20387 3.34308 4.04276 3.63851 3.94364C3.69986 3.92964 3.66434 3.88767 3.65573 3.86183C3.55778 3.52169 3.46628 3.18694 3.36295 2.85003C3.36446 2.8334 3.36169 2.81666 3.35491 2.8014C3.34813 2.78614 3.33756 2.77287 3.3242 2.76284C3.16812 3.30965 3.01205 3.84784 2.84414 4.41617Z" fill="white"/>
<path fill-rule="evenodd" clip-rule="evenodd" d="M2.84399 4.41602C3.01191 3.84769 3.16691 3.3095 3.32406 2.7627C3.33699 2.77316 3.34731 2.78648 3.35421 2.80161C3.36113 2.81674 3.36443 2.83326 3.36389 2.84988C3.47153 3.18679 3.55764 3.52154 3.65559 3.86168C3.6642 3.88751 3.69972 3.9295 3.63836 3.94349C3.34294 4.04261 3.0721 4.20372 2.84399 4.41602Z" fill="#E92D2E"/>
</g>
<defs>
<clipPath id="clip0_36_14001">
<rect width="31.1765" height="7.10414" fill="white" transform="translate(0 0.448242)"/>
</clipPath>
</defs>
</svg>
