<svg xmlns="http://www.w3.org/2000/svg" width="36" height="16" fill="#005caa" xmlns:v="https://vecta.io/nano"><path d="M19.89 5.983a1.61 1.61 0 0 0 0-.545c-.097-.556-.512-1.009-1.294-1.023l-1.075-.023-1.862-.029-.87 1.741.389-.031-1.049 4.773h3.003c.131 0 .261-.014.389-.041 1.412-.289 2.797-2.045 1.408-3.445.252-.139.469-.335.636-.573a1.96 1.96 0 0 0 .326-.804h0zm-2.368 3.245a.41.41 0 0 1-.241.086h-1.08l.355-1.435h.809a.77.77 0 0 1 .153.014c.645.127.418 1.05.003 1.335zm.264-2.318h-1.018l.301-1.276h.896c.477.005.416 1.282-.178 1.282l-.001-.005zm12.779 3.999l-.542-6.455h-2.876l-.839 1.621h.301l-1.472 3.29-.661 1.475h1.982l.419-1.186h1.565v1.255h2.123zm-2.67-2.531h-.542l.542-1.122.542-1.122v2.245h-.542zm-6.186-.625c.11-1.019 2.031-1.897 3.335-.933l.087-.217.661-1.621-.661-.38-.686-.398-.118.371c-.8.063-2.907-.682-4.204 2.652a4.02 4.02 0 0 0-.237.955 3.26 3.26 0 0 0 0 .716c.153 1.263 1.175 2.345 3.81 2.045l.686-1.901c-1.996.64-2.778-.225-2.674-1.289zM11.74 3.818l-.008-.011h-.012A8.48 8.48 0 0 0 8.244 3a8.16 8.16 0 0 0-3.436.806l-.015.012-.008.016C4.779 3.844 4 5.31 4 7.485a8.65 8.65 0 0 0 .785 3.682l.008.015.016.008a8.48 8.48 0 0 0 3.477.81 8.16 8.16 0 0 0 3.436-.806h.008l.007-.007c.037-.04.892-.986.892-3.841-.003-2.332-.852-3.476-.889-3.528zm-.082 7.27a8.04 8.04 0 0 1-3.371.787c-1.175-.016-2.335-.281-3.407-.779a8.59 8.59 0 0 1-.763-3.611 8.37 8.37 0 0 1 .764-3.581 8.06 8.06 0 0 1 3.364-.784 8.37 8.37 0 0 1 3.412.787c.174.261.316.543.422.84a7.36 7.36 0 0 1 .434 2.591c-.001 2.678-.777 3.664-.854 3.754v-.004zM8.315 3.811s-1.397-.027-1.397 1.312 1.287 1.245 1.287 2.864V9.82h.218V7.992c0-1.624 1.287-1.531 1.287-2.864S8.315 3.811 8.315 3.811zM6.36 8.208c.694.188 1.586.615 1.586 1.608h.103V8.19c0-.728-.637-2.157-1.549-2.157s-1.148.835-1.148 1.185c.007.473.293.795 1.008.99z"/><path d="M6.762 9.344c.601-.136.882.187.933.472h.095c.052-.567-.465-1.261-1.377-1.413s-.957-.468-.957-.468c-.445.84-.075 1.724 1.306 1.409zm3.461-1.136c.715-.194 1.002-.517 1.002-.99 0-.35-.237-1.185-1.149-1.185S8.527 7.462 8.527 8.19v1.627h.1c0-.995.9-1.421 1.595-1.609z"/><path d="M10.17 8.403c-.912.151-1.429.845-1.377 1.413h.098c.052-.285.332-.608.933-.472 1.378.315 1.749-.569 1.314-1.409 0 0-.056.316-.967.468zm-3.873 2.395l.126.046-.045.136c-.016.007-.033.01-.05.01-.026-.002-.052-.008-.077-.018-.019-.007-.037-.018-.051-.032s-.025-.033-.032-.052a.21.21 0 0 1 0-.136l.049-.136c.013-.045.041-.083.079-.109.017-.011.036-.018.055-.021s.04.001.058.008c.032.01.06.032.077.061a.12.12 0 0 1 0 .094l.123.045c.016-.03.024-.063.024-.097s-.008-.067-.024-.097a.28.28 0 0 0-.163-.125.25.25 0 0 0-.108-.019c-.037.002-.073.011-.106.027s-.063.042-.088.071-.043.064-.054.101l-.049.136c-.015.036-.023.074-.023.113s.008.077.023.113a.27.27 0 0 0 .068.092c.028.026.062.045.098.057a.37.37 0 0 0 .167.027.26.26 0 0 0 .115-.038l.09-.259-.256-.094-.026.096z"/><path d="M6.973 10.526l-.235-.045-.132.701.132.026.05-.281.108.02c.015.002.029.006.041.014s.024.018.033.03.013.027.015.042.002.03-.002.045l-.009.049c-.004.023-.006.046-.007.07s.003.04.015.056l.14.027v-.01c-.012-.015-.018-.034-.019-.053s-.002-.042 0-.063l.009-.052c.008-.037.005-.075-.008-.111s-.042-.062-.075-.078c.034-.007.066-.024.093-.048s.039-.054.045-.087.007-.059 0-.087a.19.19 0 0 0-.038-.078c-.042-.046-.096-.077-.156-.089h0zm.069.235c-.002.014-.006.027-.013.039s-.017.022-.028.029c-.028.013-.06.016-.09.008l-.096-.019.037-.205.099.019c.031.003.059.019.078.044.008.012.013.026.015.041s.002.029-.002.044z"/><path d="M7.658 11.083a.15.15 0 0 1-.012.058c-.008.018-.019.035-.034.048s-.031.02-.049.025-.037.006-.055.003a.13.13 0 0 1-.053-.013c-.017-.008-.031-.02-.044-.034s-.02-.034-.025-.053-.006-.039-.003-.059l.037-.465-.132-.012-.044.464c-.005.035-.001.071.009.105s.029.065.053.09a.29.29 0 0 0 .193.085.29.29 0 0 0 .204-.05c.028-.021.05-.048.066-.08a.24.24 0 0 0 .026-.102l.04-.465-.132-.012-.045.466z"/><path d="M8.163 10.637h-.264v.713h.132v-.259h.132a.27.27 0 0 0 .188-.06c.022-.021.039-.047.051-.075a.23.23 0 0 0 .018-.09c0-.031-.006-.061-.018-.09s-.029-.054-.051-.075c-.053-.045-.12-.068-.188-.064h0zm.086.312c-.012.011-.026.02-.041.025s-.031.007-.048.006h-.132v-.24h.132a.11.11 0 0 1 .047.007c.015.006.029.015.04.027.02.024.031.054.029.086s-.009.061-.029.083l.001.006zm1.143.008c-.027-.03-.065-.047-.104-.048.028-.014.051-.036.065-.064a.16.16 0 0 0 .017-.091.17.17 0 0 0-.084-.136.32.32 0 0 0-.194-.029l-.225.024.073.709.264-.029a.29.29 0 0 0 .18-.072c.02-.021.035-.046.043-.074a.19.19 0 0 0 .006-.087.18.18 0 0 0-.041-.104h0zm-.369-.25l.087-.01c.031-.006.064-.001.093.014.011.008.02.018.027.03s.01.026.01.039.001.026-.003.038-.011.024-.02.033c-.024.02-.053.032-.083.033l-.093.01-.018-.187zm.264.443a.13.13 0 0 1-.081.034l-.132.014-.021-.205.132-.014c.031-.006.063.001.089.019.011.009.02.021.026.034s.01.027.011.042-.002.029-.008.042a.09.09 0 0 1-.026.033h.011z"/><path d="M10.025 10.909l-.132.027a.15.15 0 0 1-.011.108c-.01.014-.022.026-.037.035s-.031.015-.048.017-.039.005-.059-.001-.037-.015-.051-.029c-.033-.034-.054-.077-.061-.124l-.026-.136c-.01-.045-.007-.093.009-.136.007-.018.019-.034.034-.046s.033-.02.052-.023.035-.006.053-.004a.13.13 0 0 1 .05.018c.014.011.026.026.034.042a.14.14 0 0 1 .016.052l.132-.027c-.004-.033-.015-.065-.033-.093s-.041-.052-.069-.069c-.064-.034-.137-.042-.206-.023-.036.006-.07.02-.101.041s-.056.048-.075.08a.31.31 0 0 0-.033.224l.026.136c.006.038.019.075.039.109s.046.062.076.085a.26.26 0 0 0 .102.044c.037.007.074.006.111-.003.069-.01.132-.046.176-.102.019-.027.032-.058.037-.091a.23.23 0 0 0-.004-.099l-.003-.01z"/><path d="M10.129 10.379l.008.753.132-.049v-.161l.211-.076.094.13.132-.049-.443-.596-.135.049zm.132.425l-.008-.263.152.211-.144.052z"/></svg>