<svg xmlns="http://www.w3.org/2000/svg" width="36" height="16" fill="none" xmlns:v="https://vecta.io/nano"><g clip-path="url(#A)" fill-rule="evenodd"><g fill="#f15a23"><path d="M4.25 6.363L6.49 9.09l-2.24 1.795V6.363zm.902 4.524l1.677-1.364 1.161 1.364H5.152zM4.25 4.898l.586.716 2.392 2.898.774-.602s-.645-.739-1.079-1.557C6.079 4.75 6.677 3.75 6.677 3.75H4.25v1.148zm3.32 4.068l.786-.636s.75.966 1.63 1.193c1.149.295 1.653-.432 1.653-.432v1.795H9.13l.563-.477s-.293.193-1.02-.295C8.25 9.83 7.57 8.966 7.57 8.966zm.08-5.216s-.258.33-.07 1.148c.188.875.962 1.795.95 1.773 0 0 .047-.92.598-1.455 1.184-1.148 2.521-.466 2.521-.466v-1H7.65z"/><path d="M11.65 5.967s-.75-.625-1.395-.625a1.27 1.27 0 0 0-1.29 1.205c0 .739.364 1.148.727 1.5.528.511 1.161 1.057 1.958.614V5.967z"/></g><g fill="#005e6a"><path d="M20.16 3.83h1.759l2.333 3.239 1.595 2.023v-4.75c0-.205-.551-.511-.551-.511h2.029s-.668.261-.668.511v6.909s-.645-.341-1.372-1.159c-.821-.92-3.717-4.625-3.717-4.625v4.807c0 .25.551.614.551.614h-1.97s.539-.375.539-.614V4.341c.012-.216-.528-.511-.528-.511zm8.317 0h2.263s-.61.284-.61.511v5.932c0 .261.61.614.61.614h-2.263s.563-.375.563-.614V4.341c0-.227-.563-.511-.563-.511zm-14.977 0s.586.284.586.511v5.932c0 .25-.586.614-.586.614h3.354c.211 0 2.556-.375 2.556-2.125s-1.829-1.92-1.829-1.92 1.114-.295 1.114-1.5c0-1.295-1.63-1.511-1.841-1.511H13.5zm1.782 2.898V4.523h1.36c.211 0 .938.239.938 1.114 0 .727-.739 1.091-.938 1.091h-1.36zm0 .58h1.571c.211 0 1.442.307 1.442 1.352 0 1.057-1.231 1.432-1.442 1.432h-1.571V7.307z"/></g></g><defs><clipPath id="A"><path fill="#fff" transform="translate(4.25 3.75)" d="M0 0h26.5v7.5H0z"/></clipPath></defs></svg>