<svg xmlns="http://www.w3.org/2000/svg" width="36" height="16" fill="none" xmlns:v="https://vecta.io/nano"><g clip-path="url(#A)" fill-rule="evenodd" fill="#1f4396"><path d="M12.431 7.759v.648h.304c.157 0 .277-.028.358-.084a.28.28 0 0 0 .122-.245c0-.107-.037-.186-.112-.239s-.186-.08-.334-.08h-.338zm0-1.106v.617h.234c.163 0 .285-.026.366-.079s.121-.133.121-.24a.25.25 0 0 0-.114-.222c-.076-.051-.188-.076-.336-.076h-.271zm-.755-.497h1.185c.35 0 .613.06.79.18s.265.298.265.535a.58.58 0 0 1-.139.397c-.092.105-.227.182-.403.228.198.035.351.109.457.222a.61.61 0 0 1 .16.434c0 .259-.097.451-.291.576s-.493.187-.898.187h-1.126v-2.76zm3.967.616l-.375 1.035h.737l-.362-1.035zm-.45-.616h.931l1.096 2.76h-.825l-.206-.585h-1.114l-.216.585h-.763l1.097-2.76zm2.193 0h.963l.838 1.655a2.39 2.39 0 0 1 .1.232l.126.364-.054-.375-.017-.313V6.156h.697v2.76h-.959l-.871-1.715a2.23 2.23 0 0 1-.112-.257l-.094-.302.06.454.019.364v1.457h-.697v-2.76zm3.2 0h.771v1.193l.896-1.193h.864l-1.063 1.268 1.172 1.492h-.958l-.91-1.28v1.28h-.771v-2.76zm4.885 1.603v.648h.304c.158 0 .277-.028.358-.084a.28.28 0 0 0 .122-.245c0-.106-.037-.186-.112-.239s-.186-.08-.334-.08h-.338zm0-1.106v.617h.234c.163 0 .285-.026.366-.079s.121-.133.121-.24a.25.25 0 0 0-.114-.222c-.076-.051-.188-.076-.336-.076h-.271zm-.755-.497h1.185c.35 0 .614.06.79.18s.265.298.265.535c0 .159-.046.292-.138.397s-.227.182-.403.228c.198.035.35.109.457.222s.16.258.16.434c0 .259-.097.451-.291.576s-.493.187-.898.187h-1.126v-2.76zm3.525.485v.708h.271c.167 0 .292-.029.376-.087s.125-.144.125-.26a.3.3 0 0 0-.139-.274c-.093-.058-.24-.087-.441-.087h-.191zm-.755-.485h1.15c.383 0 .668.059.853.178s.278.299.278.541c0 .179-.049.326-.147.441s-.239.192-.424.231c.152.053.275.204.367.452l.346.917h-.805l-.255-.756c-.041-.122-.096-.206-.167-.253s-.18-.07-.33-.07h-.112v1.078h-.755v-2.76zm2.74 0h.772v2.76h-.772v-2.76zM4.5 5.371a.87.87 0 0 1 .871-.871h4.331a.87.87 0 0 1 .871.871v4.331a.87.87 0 0 1-.871.871H5.371a.87.87 0 0 1-.871-.871V5.371zm1.059 4.607c-.256 0-.464-.208-.464-.464V5.561c0-.256.208-.464.464-.464h.53c.698 0 1.215.707.769 1.154L5.562 7.548l1.112 1.164c.539.565-.092 1.266-.69 1.266H5.56zM7.24 5.097h.448c.698 0 1.215.707.768 1.154L7.161 7.548l2.381 2.429H7.03c.54 0 .881-.908.303-1.51l-.882-.919 1.027-1.059c.553-.57.152-1.304-.237-1.392zm2.737 4.417L8.049 7.548l1.027-1.059c.553-.57.152-1.304-.237-1.392h.673c.257 0 .464.208.464.464l.001 3.953z"/></g><defs><clipPath id="A"><path fill="#fff" transform="translate(4.25 3.75)" d="M0 0h26.5v7.5H0z"/></clipPath></defs></svg>