<svg xmlns="http://www.w3.org/2000/svg" width="36" height="16" fill="none" xmlns:v="https://vecta.io/nano"><g clip-path="url(#A)"><path d="M13.415 6.217h-.009v.001z" fill="#168f8c"/><g fill="#0ca49d"><path d="M13.477 6.131v5.542h1.308V7.519a1.39 1.39 0 0 0-1.308-1.388zm-6.96 4.578a1.12 1.12 0 0 0 .408-.063c.106-.042.188-.097.248-.163a.56.56 0 0 0 .123-.226c.022-.084.034-.169.034-.256a.86.86 0 0 0-.039-.268.45.45 0 0 0-.134-.2.67.67 0 0 0-.252-.127 1.47 1.47 0 0 0-.395-.044h-.88v1.347h.886zM5.63 7.188v1.335h.655a2.21 2.21 0 0 0 .376-.03c.112-.019.206-.054.286-.103s.138-.118.179-.204a.76.76 0 0 0 .061-.327c0-.132-.016-.235-.048-.321s-.082-.154-.149-.205-.152-.089-.256-.111a1.78 1.78 0 0 0-.367-.034h-.739.001zm.739-.938c.375 0 .694.035.958.103s.479.167.645.293a1.11 1.11 0 0 1 .363.46 1.56 1.56 0 0 1 .114.605 1.17 1.17 0 0 1-.052.35 1.03 1.03 0 0 1-.164.315 1.26 1.26 0 0 1-.287.269 1.82 1.82 0 0 1-.421.212c.358.087.623.226.794.419s.257.443.257.75a1.54 1.54 0 0 1-.134.642 1.46 1.46 0 0 1-.393.517 1.86 1.86 0 0 1-.639.345c-.253.083-.543.124-.868.124H4.375V6.25h1.997-.004zm5.994 1.097c-.038.059-.077.103-.117.133s-.094.044-.158.044c-.057 0-.118-.018-.184-.054l-.223-.12a1.79 1.79 0 0 0-.285-.12c-.107-.036-.229-.054-.365-.054-.236 0-.412.05-.527.15a.51.51 0 0 0-.174.406.38.38 0 0 0 .104.271.92.92 0 0 0 .274.186c.113.053.243.1.388.143l.445.145a3.81 3.81 0 0 1 .445.187 1.5 1.5 0 0 1 .388.274 1.29 1.29 0 0 1 .274.406c.07.159.104.352.104.576 0 .249-.043.483-.13.7a1.65 1.65 0 0 1-.379.57 1.76 1.76 0 0 1-.611.383c-.243.093-.518.14-.825.14-.169 0-.341-.017-.517-.052a3.2 3.2 0 0 1-.509-.146 3 3 0 0 1-.462-.225 1.97 1.97 0 0 1-.376-.29l.373-.585a.37.37 0 0 1 .117-.106.31.31 0 0 1 .158-.043c.074 0 .149.023.226.071l.257.156a2.07 2.07 0 0 0 .33.156c.125.047.271.071.44.071.228 0 .406-.05.533-.15s.19-.258.19-.477a.45.45 0 0 0-.104-.308.8.8 0 0 0-.274-.196 2.54 2.54 0 0 0-.386-.137l-.444-.132a3.12 3.12 0 0 1-.444-.178 1.41 1.41 0 0 1-.385-.278 1.29 1.29 0 0 1-.274-.43c-.07-.172-.104-.384-.104-.636 0-.203.042-.401.123-.593a1.53 1.53 0 0 1 .362-.516 1.8 1.8 0 0 1 .585-.362c.231-.091.496-.136.794-.136a3.01 3.01 0 0 1 .487.039 2.57 2.57 0 0 1 .449.115 2.42 2.42 0 0 1 .397.182c.123.071.232.15.33.239l-.313.583-.003-.004z"/></g><path d="M14.926 4.134L14.911 4a1.49 1.49 0 0 0 1.164.448c.217-.014.419-.074.6-.168-.14.243-.213.529-.193.83.023.372.184.703.428.949-.125-.025-.256-.035-.389-.026a1.49 1.49 0 0 0-1.214.77c-.093-.638-.591-1.135-1.213-1.245.526-.256.872-.809.833-1.426l-.001.001z" fill="#f9ad3c"/><g fill="#0ca49d"><path d="M17.174 9.461c.06 0 .112-.006.154-.021s.079-.032.106-.057.049-.054.062-.089.02-.072.02-.114c0-.08-.029-.143-.086-.189s-.143-.07-.257-.07h-.336v.539h.336zm-.336-1.216v.527h.278a.55.55 0 0 0 .154-.019c.044-.013.08-.031.109-.054s.051-.05.064-.083a.27.27 0 0 0 .021-.109c0-.092-.027-.158-.083-.2s-.14-.063-.256-.063h-.287v.001zm.287-.165c.096 0 .178.009.247.028a.46.46 0 0 1 .17.08c.046.035.078.078.099.128s.031.106.031.168c0 .039-.006.075-.018.11s-.03.067-.053.097a.37.37 0 0 1-.091.081c-.036.023-.079.043-.128.058.114.022.2.062.257.121s.087.137.087.233c0 .066-.012.125-.036.18s-.06.101-.106.14-.104.069-.171.09-.145.031-.232.031h-.549V8.078h.496v.001z"/><path d="M18.833 9.053l-.244-.629c-.008-.018-.014-.04-.023-.065l-.023-.08-.047.146-.244.628h.58.001zm.437.574h-.162c-.019 0-.034-.005-.045-.014a.08.08 0 0 1-.026-.036l-.145-.373h-.697l-.145.373c-.004.013-.013.025-.025.035s-.027.016-.046.016h-.162l.622-1.547h.213l.622 1.547h-.003zm1.464-1.546v1.547h-.105c-.017 0-.031-.003-.043-.009s-.022-.016-.033-.03l-.898-1.166.004.053.001.049v1.102h-.184V8.081h.109c.009 0 .017.001.023.003.022.008.027.01.032.016s.01.01.017.017l.898 1.164-.004-.054-.001-.05V8.08h.184l-.001.001zm.605.678h.079a.2.2 0 0 0 .066-.01.12.12 0 0 0 .046-.036l.517-.583c.014-.019.03-.032.045-.039a.14.14 0 0 1 .058-.01h.178l-.592.666a.29.29 0 0 1-.043.043.24.24 0 0 1-.043.027.14.14 0 0 1 .053.03c.015.014.031.028.047.049l.618.733h-.182c-.014 0-.026-.001-.036-.003a.11.11 0 0 1-.025-.009c-.008-.004-.014-.009-.019-.014s-.01-.012-.016-.019l-.536-.614c-.014-.018-.03-.031-.047-.037a.22.22 0 0 0-.075-.012h-.095v.708h-.209V8.08h.209v.678h.001zm2.576-.436a.09.09 0 0 1-.022.025c-.008.006-.017.008-.027.008s-.027-.006-.043-.018l-.062-.04c-.025-.016-.055-.028-.09-.041s-.077-.018-.127-.018a.37.37 0 0 0-.125.019.3.3 0 0 0-.09.05.23.23 0 0 0-.055.076c-.012.028-.018.059-.018.094 0 .043.01.079.031.109a.29.29 0 0 0 .084.072.69.69 0 0 0 .119.053l.136.045.136.054c.044.02.084.044.12.075a.33.33 0 0 1 .084.111.36.36 0 0 1 .032.162.52.52 0 0 1-.035.191c-.023.059-.057.11-.102.154a.46.46 0 0 1-.164.103c-.065.025-.137.037-.221.037a.68.68 0 0 1-.275-.054.67.67 0 0 1-.212-.147l.061-.1c.005-.008.013-.014.021-.019s.018-.009.028-.009.02.004.031.012l.041.028.052.037a.4.4 0 0 0 .066.037c.025.012.053.021.086.03a.46.46 0 0 0 .108.01c.049 0 .095-.006.134-.021a.31.31 0 0 0 .099-.057c.028-.025.048-.056.062-.089s.022-.074.022-.115c0-.047-.01-.085-.032-.115a.26.26 0 0 0-.083-.075.57.57 0 0 0-.119-.05l-.136-.043-.136-.052c-.045-.019-.084-.045-.119-.075s-.062-.07-.084-.115-.031-.105-.031-.173a.42.42 0 0 1 .031-.159.41.41 0 0 1 .094-.136c.041-.04.091-.071.15-.096a.53.53 0 0 1 .206-.036.65.65 0 0 1 .236.041.54.54 0 0 1 .188.119l-.051.1-.001-.001z"/><path d="M24.85 9.013v.616h-.21v-.616l-.57-.931h.184c.018 0 .034.005.044.014s.021.021.029.035l.356.601.036.071.029.066.027-.066.034-.071.354-.601c.006-.012.015-.023.027-.034s.026-.016.044-.016h.186l-.57.931zm1.444.04l-.244-.629c-.008-.018-.014-.04-.023-.065l-.023-.08-.047.146-.244.628h.58.001zm.437.574h-.162c-.02 0-.034-.005-.046-.014s-.021-.021-.026-.036l-.145-.373h-.697l-.145.373c-.004.013-.013.025-.025.035s-.027.016-.045.016h-.162l.622-1.547h.213l.622 1.547h-.003zm.634-.797a.55.55 0 0 0 .161-.022c.047-.015.086-.036.117-.062s.056-.059.071-.097a.32.32 0 0 0 .023-.124c0-.092-.03-.162-.091-.208s-.152-.07-.274-.07h-.23v.584h.221l.001-.001zm.718.797h-.187c-.039 0-.066-.014-.084-.044l-.404-.553c-.012-.017-.026-.03-.04-.036s-.035-.012-.065-.012h-.16v.645h-.209V8.08h.439a.94.94 0 0 1 .254.03c.071.02.131.048.177.085a.34.34 0 0 1 .104.136c.022.053.034.111.034.177a.46.46 0 0 1-.026.154.41.41 0 0 1-.075.128c-.032.038-.073.07-.121.096s-.1.047-.161.061c.027.016.049.037.069.066l.453.614.003.001zm.422.002h-.212V8.082h.212v1.547zm1.222-.576l-.244-.629c-.008-.018-.014-.04-.023-.065l-.023-.08-.047.146-.244.628h.58.001zm.437.574h-.162c-.018 0-.034-.005-.046-.014s-.021-.021-.026-.036l-.145-.373h-.697l-.145.373c-.004.013-.013.025-.025.035s-.027.016-.045.016h-.162l.622-1.547h.213l.622 1.547h-.003zm1.462-1.545v1.547h-.21v-.704h-.838v.704h-.21V8.082h.21v.69h.838v-.69h.21zm-14.791 3.586h-.21v-1.547h.21v1.547zm1.657-1.548v1.547h-.105c-.017 0-.031-.003-.043-.009s-.022-.016-.033-.03l-.898-1.166.004.053.001.049v1.102h-.184V10.12h.109c.009 0 .017.001.023.003.022.008.027.01.032.016s.01.01.017.017l.898 1.165-.004-.054-.001-.05v-1.096h.184l-.001.001zm1.746.774a.85.85 0 0 1-.056.317.71.71 0 0 1-.398.402c-.093.036-.199.056-.313.056h-.58v-1.547h.58a.84.84 0 0 1 .313.056.67.67 0 0 1 .243.158.68.68 0 0 1 .156.244.88.88 0 0 1 .056.317v-.001zm-.215 0a.77.77 0 0 0-.039-.255.53.53 0 0 0-.11-.19.46.46 0 0 0-.174-.119c-.069-.027-.144-.041-.227-.041h-.37v1.208h.37a.6.6 0 0 0 .227-.041.49.49 0 0 0 .174-.118.53.53 0 0 0 .11-.19.78.78 0 0 0 .039-.255zm1.951.001a.87.87 0 0 1-.056.319c-.036.097-.088.18-.156.249a.72.72 0 0 1-.243.163c-.095.039-.199.057-.313.057s-.218-.019-.313-.057a.71.71 0 0 1-.241-.163.73.73 0 0 1-.156-.249.89.89 0 0 1-.056-.319.86.86 0 0 1 .056-.318.72.72 0 0 1 .156-.251c.068-.071.148-.125.241-.164a.81.81 0 0 1 .313-.058c.114 0 .218.019.313.058a.69.69 0 0 1 .243.164.72.72 0 0 1 .156.251.9.9 0 0 1 .056.318zm-.215 0a.78.78 0 0 0-.039-.256.52.52 0 0 0-.11-.191c-.048-.051-.105-.093-.174-.122s-.144-.043-.227-.043a.59.59 0 0 0-.227.043c-.068.028-.126.069-.174.122s-.084.115-.11.191a.78.78 0 0 0-.039.256.79.79 0 0 0 .039.256c.026.075.062.138.11.191a.5.5 0 0 0 .174.12c.067.027.144.041.227.041a.6.6 0 0 0 .227-.041.5.5 0 0 0 .174-.12c.048-.053.084-.116.11-.191a.78.78 0 0 0 .039-.256zm1.776-.775v1.547h-.105c-.017 0-.031-.003-.043-.009a.09.09 0 0 1-.032-.03l-.898-1.166.004.053.001.049v1.102h-.184V10.12h.109c.009 0 .017.001.023.003.022.008.027.01.032.016s.01.01.017.017l.898 1.165-.004-.054-.001-.05v-1.096h.184l-.001.001zm1.357 1.378l-.001.171h-.957v-1.547h.957v.171h-.746v.513h.605v.164h-.605v.529h.748z"/><path d="M25.978 10.362c-.006.01-.014.019-.022.024s-.017.008-.027.008-.027-.006-.043-.018l-.062-.04c-.025-.015-.055-.028-.09-.041s-.077-.018-.127-.018a.37.37 0 0 0-.125.019.3.3 0 0 0-.09.05.23.23 0 0 0-.055.076c-.012.028-.018.061-.018.094 0 .043.01.079.031.109a.29.29 0 0 0 .084.072.69.69 0 0 0 .119.053l.136.045a1.24 1.24 0 0 1 .136.054c.046.019.084.044.12.075a.33.33 0 0 1 .084.111.36.36 0 0 1 .032.162.52.52 0 0 1-.035.191c-.023.059-.057.11-.102.154a.46.46 0 0 1-.164.103c-.065.024-.137.038-.221.038a.68.68 0 0 1-.275-.054.67.67 0 0 1-.212-.147l.061-.1c.005-.008.013-.014.021-.019s.018-.009.028-.009.02.004.031.012l.041.028.052.037c.02.014.041.026.066.037a.61.61 0 0 0 .086.03.46.46 0 0 0 .108.01c.049 0 .095-.006.134-.021a.31.31 0 0 0 .099-.057c.028-.025.048-.056.062-.089s.022-.074.022-.115-.01-.085-.032-.115a.26.26 0 0 0-.083-.075.5.5 0 0 0-.119-.05l-.136-.043-.136-.052c-.045-.019-.084-.045-.119-.075s-.062-.07-.084-.115-.031-.105-.031-.173a.42.42 0 0 1 .031-.159.41.41 0 0 1 .094-.136.47.47 0 0 1 .15-.096c.06-.023.129-.036.206-.036a.65.65 0 0 1 .236.041.54.54 0 0 1 .188.119l-.051.1-.001-.001zm.592 1.306h-.21v-1.547h.21v1.547zm1.224-.576l-.244-.629-.023-.065-.023-.08-.047.146-.244.628h.58.001zm.437.574h-.162c-.02 0-.034-.005-.046-.014s-.021-.021-.026-.036l-.145-.373h-.697l-.145.373c-.004.013-.013.025-.025.035s-.027.015-.045.015h-.162l.622-1.547h.213l.622 1.547h-.003z"/></g></g><defs><clipPath id="A"><path fill="#fff" transform="translate(4.371 4)" d="M0 0h27.257v7.714H0z"/></clipPath></defs></svg>