<svg xmlns="http://www.w3.org/2000/svg" width="36" height="16" fill="none" xmlns:v="https://vecta.io/nano"><g clip-path="url(#A)" fill-rule="evenodd"><path d="M11.831 7.764c.106-1.14-.407-2.164-.956-2.764a3.79 3.79 0 0 0-2.553-1.239c-.584-.047-1.164.056-1.641.24a3.86 3.86 0 0 0-1.42.947c-.23.257-.42.493-.584.819-.487.969-.575 2.036-.177 3.06.19.493.389.776.717 1.161.257.304.699.63 1.066.823.434.223.902.373 1.486.416a3.89 3.89 0 0 0 1.65-.24c.5-.193.841-.433 1.177-.716a3.07 3.07 0 0 0 .239-.236c.593-.664.907-1.333.995-2.271z" fill="#108ce7"/><path d="M5.855 6.398c.164-.009.495.497 1.61.154.257-.077.495-.176.739-.266.549-.197 1.062-.399 1.637-.18.106.039.257.116.327.176.12.099.089.219.089.403v1.479c0 .086.018.411-.027.463-.049.004-.23-.107-.341-.15-.416-.163-.872-.107-1.279.004-.752.206-1.588.677-2.393.39-.46-.163-.398-.24-.398-.574V6.848c.009-.116-.013-.369.035-.45z" fill="#fff"/><g fill="#108ce7"><path d="M28.279 8.588h1.641v.81l.823-.004v-1.35c0-.399.035-.917-.071-1.273-.186-.617-.779-1.157-1.584-1.157a1.64 1.64 0 0 0-1.575 1.166c-.102.356-.066.87-.066 1.273v1.341h.827l.004-.806zm0-.814c-.018-.141-.004-.386-.004-.536a.79.79 0 0 1 .119-.416c.318-.523 1.097-.519 1.411.004.071.124.115.249.115.42l-.004.527h-1.637zm-9.454.813l1.646.004v.806h.823v-1.35c0-.399.035-.917-.071-1.273a1.64 1.64 0 0 0-1.575-1.157 1.64 1.64 0 0 0-1.579 1.161c-.106.347-.071.883-.071 1.277v.677.669h.823l.004-.814zm.004-.819c-.013-.141-.004-.386 0-.536.013-.424.345-.806.823-.806a.82.82 0 0 1 .823.814v.531l-1.646-.004zm-5.548 1.63h1.314a1.98 1.98 0 0 0 1.04-.266 1.88 1.88 0 0 0 0-3.253c-.287-.167-.628-.266-1.035-.266-.438 0-.876-.004-1.314 0l-.005 3.784zm.823-2.966c.181-.009.504-.013.681.009.987.111 1.323 1.389.491 1.954-.332.227-.757.21-1.172.189V6.432zm9.452 2.965V7.516c0-.356-.009-.54.177-.776.124-.154.349-.313.65-.309.314.004.522.159.65.321.181.231.168.433.168.776v1.873l.827-.004v-1.35c0-.394.035-.917-.071-1.273a1.64 1.64 0 0 0-1.584-1.157c-.805 0-1.394.549-1.575 1.166-.106.351-.071.879-.071 1.273v1.341h.827z"/></g></g><defs><clipPath id="A"><path fill="#fff" transform="translate(4.25 3.75)" d="M0 0h26.5v7.5H0z"/></clipPath></defs></svg>