<svg xmlns="http://www.w3.org/2000/svg" width="36" height="16" fill="none" xmlns:v="https://vecta.io/nano"><g clip-path="url(#A)"><path d="M9.009 12.25c2.628 0 4.759-2.127 4.759-4.75s-2.131-4.75-4.759-4.75S4.25 4.877 4.25 7.5s2.131 4.75 4.759 4.75z" fill="#01aed6"/><path d="M11.656 7.076c-.057-.215-.179-.407-.351-.549a1.07 1.07 0 0 0-.605-.244H7.485a.22.22 0 0 1-.177-.049.22.22 0 0 1-.057-.075c-.013-.029-.02-.06-.02-.092s.007-.063.02-.092a.22.22 0 0 1 .14-.119.22.22 0 0 1 .094-.005h3.122s-.011-.828-1.06-.828H7.865c-.721 0-1.487.38-1.532 1.311-.048.777-.048 1.557 0 2.335.045.541.195 1.162 1.382 1.265s2.501.046 2.962-.058a1.28 1.28 0 0 0 .682-.42c.176-.209.281-.469.298-.742.046-.649.115-1.179 0-1.639zm-.841 1.019v.288c0 .052-.021.102-.058.138s-.087.057-.139.057-.102-.021-.139-.057-.057-.086-.057-.138v-.288c-.047-.04-.081-.094-.097-.153a.3.3 0 0 1 .009-.181c.021-.058.06-.108.111-.144s.111-.054.173-.054.122.019.173.054.089.086.111.144a.3.3 0 0 1 .009.181c-.016.06-.05.113-.097.153z" fill="#fff"/><g fill="#080403"><path d="M19.736 5.594c-.846 0-1.533.635-1.533 1.419s.687 1.419 1.533 1.419 1.532-.636 1.532-1.419-.685-1.419-1.532-1.419zm0 2.159a.78.78 0 0 1-.555-.206c-.15-.139-.24-.332-.248-.537a.8.8 0 0 1 .258-.524.81.81 0 0 1 .545-.212c.202 0 .397.076.545.212s.241.324.258.524a.77.77 0 0 1-.069.294c-.042.093-.102.176-.177.245a.79.79 0 0 1-.258.159c-.096.036-.197.052-.299.048v-.003zm3.525-2.159a1.34 1.34 0 0 0-.855.309v-.236h-.769V9.41h.769V8.064a1.33 1.33 0 0 0 .855.311c.369 0 .724-.146.985-.407a1.39 1.39 0 0 0 0-1.966c-.261-.261-.616-.407-.985-.407h0zm-.144 2.159c-.155-.001-.306-.05-.433-.14a.75.75 0 0 1-.273-.363v-.53a.75.75 0 0 1 .705-.502.77.77 0 0 1 .544.225c.144.144.225.339.225.542s-.081.399-.225.542a.77.77 0 0 1-.544.225v.001zm6.859-2.159l-.874 1.766-.874-1.766h-.772l1.259 2.546-.626 1.265h.773l.239-.485.386-.78 1.26-2.546h-.773zM17.837 8.46V5.617h-.681v.262a1.39 1.39 0 0 0-1.989.413 1.39 1.39 0 0 0 0 1.442 1.39 1.39 0 0 0 1.989.414v.2c0 .356-.349.642-.78.642-.152.008-.303-.029-.434-.106a.79.79 0 0 1-.306-.326l-.57.456c.144.208.339.377.566.491a1.52 1.52 0 0 0 .732.161c.786 0 1.426-.511 1.459-1.152v-.056l.013.001zm-1.412-.662a.79.79 0 0 1-.406-.112c-.123-.074-.223-.179-.29-.305a.79.79 0 0 1-.091-.411.77.77 0 0 1 .135-.399c.081-.118.192-.212.322-.272a.79.79 0 0 1 1.062.425V7.3c-.057.147-.158.273-.288.362s-.285.137-.443.137h0z"/><path d="M26.105 5.594c-.96 0-1.269.617-1.39.864l.645.153s.069-.466.761-.466.599.466-.046.551-1.36.24-1.36.843c0 .523.453.82 1.083.82s.852-.368.852-.368v.368h.675V6.575c0-.413-.259-.982-1.22-.982zm-.277 2.202c-.607 0-.529-.469-.184-.507.433-.049.815-.117 1.022-.315 0 .461-.231.822-.838.822z"/></g></g><defs><clipPath id="A"><path fill="#fff" transform="translate(4.25 2.75)" d="M0 0h26.5v9.5H0z"/></clipPath></defs></svg>