<svg xmlns="http://www.w3.org/2000/svg" width="36" height="16" fill="none" xmlns:v="https://vecta.io/nano"><g clip-path="url(#A)"><g fill-rule="evenodd"><path d="M5.017 3.084h24.926c.215 0 .403.08.538.228.134.134.229.321.229.535v7.308c0 .214-.081.402-.229.535-.135.134-.323.227-.538.227H5.017c-.215 0-.404-.08-.538-.227-.135-.134-.229-.321-.229-.535V3.847c0-.214.081-.402.229-.535.135-.147.323-.228.538-.228z" fill="#f0f0f0"/><path d="M30.415 9.08v2.075c0 .254-.215.468-.471.468H5.018c-.256 0-.471-.214-.471-.468V9.08h25.868z" fill="#fecf22"/></g><path d="M30.415 6.215H4.547v2.556h25.868V6.215z" fill="#006ab4"/><g fill-rule="evenodd"><path d="M5.018 3.379h24.926c.256 0 .471.214.471.468v2.075H4.547V3.847c0-.268.202-.468.471-.468z" fill="#d61627"/><path d="M8.486 5.159c1.735-.509 3.201-.816 4.601-.99 1.251-.161 2.448-.214 3.726-.228h.43.498.43c1.264.013 2.448.067 3.699.228 1.399.174 2.852.482 4.574.99.188.054.377.147.511.281.148.147.242.335.242.562v1.459.067 1.459a.73.73 0 0 1-.242.562c-.134.134-.323.228-.511.281-1.722.509-3.188.816-4.574.99-1.251.161-2.435.214-3.699.227h-.43-.013-.148-.027-.188-.256c-1.386 0-2.65-.053-3.968-.214-1.412-.174-2.906-.482-4.668-1.004-.188-.054-.377-.147-.511-.281-.148-.147-.242-.335-.242-.562V7.528v-.067-1.445c0-.241.094-.428.242-.562a1.29 1.29 0 0 1 .525-.294z" fill="#e6e6e6"/><path d="M20.486 8.505c-.108-.147 0-.402.067-.535.081-.147.202-.335.39-.294.081.308-.188.857-.457.83zm-5.878-.857c.134.348-.323.99-.471.816-.135-.147.161-.883.471-.816zm.968.816l-.054-.12c-.148.04-.39.174-.565.134-.094-.214.578-1.606.699-2.034l-.336.013c-.094.161-.269.696-.35.816-.592-.067-.848.107-1.09.428-.39.509-.108.562-.404.736-.256.147-.229.067-.242.04-.108-.094.202-.736.229-.883.04-.187-.054-.335-.229-.321-.161.013-.283.12-.39.187-.39.214-.027-.616-1.103.147l-.336.214c.014-.067.323-.736.39-.897l.35-.923c-.39-.027-1.56.174-1.91.495-.673.602.135 1.379.659.776-.121-.094-.323 0-.35-.241-.027-.201.04-.335.161-.415.135-.107.713-.201.928-.241-.027.107-.108.308-.161.442-.229.642-.511 1.619-1.332 1.646-.43.013-.552-.174-.713-.468-.094.107-.135.321-.081.482.054.147.161.241.296.308.646.308 1.211-.214 1.668-.562.121-.094.538-.522.767-.415.121.241-.229.75-.242 1.004l.431.013.215-.656c.067-.187.148-.522.39-.348.094.254-.309.776-.081.95.229.187.74-.187.861-.254.094.134.094.308.336.348.202.027.39-.054.498-.147.067.08.054.174.215.161.121-.027.592-.335.874-.415zm8.044-.361c-.014-.214.229-.522.404-.509.054.134-.04.268-.108.348-.081.08-.161.174-.296.161zm-6.376-.522l.054.147c.134-.04.282-.12.417-.08.04.254-.336.937-.39 1.231l.417-.013c.081-.134.175-.455.229-.629.067-.174.148-.522.39-.428.148.281-.242.79-.269 1.057h.471l.296-.816c.054-.12.108-.321.296-.268.215.054-.148.455-.148.803 0 .161.108.294.269.281.202-.027.552-.308.74-.348.081.187.094.294.323.335s.363-.067.511-.147l.013.013.027.04c.04.067.067.107.175.12.35.04.874-.522 1.076-.79.229-.294.135-.281.43-.294-.067.268-.377.709-.108.977s.794-.094.955-.187c.148.161.229.308.578.294.283-.013.431-.12.659-.187.269.442 1.157.013 1.13-.268-.121-.027-.242.134-.363.201-.161.094-.323.027-.336-.161a6.52 6.52 0 0 1 .269-.87h.269l.094-.308h-.188c.04-.321.202-.589.269-.87l-.377.013-.309.83-.283.013-.067.308h.215c-.04.294-.215.696-.377.883-.161.201-.713.308-.82-.027.134-.147.363-.174.538-.495.444-.776-.444-.87-.82-.335-.229.335-.161.442-.148.843-.457.254-.605.294-.565-.147s.108-.375.188-.455c.054-.067.081-.174.013-.228-.067-.08-.188-.013-.323-.054-.081-.214.054-.241.121-.361-.081-.013-.161.013-.242-.013-.094-.04-.04-.08-.121-.107-.108.04-.108.04-.148.161-.108.348-.067.415-.256.683-.108.147-.444.629-.686.535-.108-.147.309-.99.363-1.205-.43-.027-.363.054-.43.12-.39-.174-.605-.027-.848.187-.35.308-.363.75-.404.803-.108.067-.323.161-.471.107-.04-.174.229-.696.283-.91.054-.228-.081-.348-.309-.281-.175.04-.229.201-.39.214-.135-.094-.135-.281-.404-.241-.188.027-.202.174-.417.228l-.014-.013-.027-.054c-.013-.027-.04-.12-.081-.147-.282-.04-.726.241-.942.308z" fill="#006ab4"/><g fill="#d61627"><path d="M16.396 7.461a.53.53 0 0 1 .377.147c.094.094.148.228.148.375s-.054.281-.148.375a.53.53 0 0 1-.377.147.53.53 0 0 1-.377-.147c-.094-.094-.148-.228-.148-.375s.054-.281.148-.375a.53.53 0 0 1 .377-.147zm0-.455c-.269 0-.511.107-.7.281-.175.174-.282.415-.282.696 0 .268.108.509.282.696.175.174.417.281.7.281.269 0 .511-.107.7-.281.175-.174.282-.415.282-.696 0-.268-.108-.509-.282-.696-.188-.174-.43-.281-.7-.281zm.619.361c-.161-.161-.377-.254-.619-.254a.87.87 0 0 0-.619.254c-.162.16-.256.375-.256.616s.094.455.256.616.377.254.619.254a.87.87 0 0 0 .619-.254c.162-.16.256-.375.256-.616s-.108-.455-.256-.616zm-.619-.134c-.202 0-.404.08-.538.214s-.215.321-.215.535a.77.77 0 0 0 .215.535.75.75 0 0 0 .538.214c.202 0 .404-.08.538-.214s.215-.321.215-.535a.77.77 0 0 0-.215-.535.8.8 0 0 0-.538-.214zm.457.294a.64.64 0 0 0-.457-.187.64.64 0 0 0-.457.187c-.121.12-.188.281-.188.455s.067.335.188.455a.64.64 0 0 0 .457.187.64.64 0 0 0 .457-.187c.121-.12.188-.281.188-.455s-.081-.335-.188-.455zm-.161.161c-.081-.08-.175-.12-.296-.12s-.215.04-.296.12a.39.39 0 0 0-.121.294.39.39 0 0 0 .121.294c.081.08.175.12.296.12s.215-.04.296-.12a.39.39 0 0 0 .121-.294.45.45 0 0 0-.121-.294zM8.624 5.574c3.43-1.004 5.784-1.205 8.636-1.205h.498c2.825.013 5.179.201 8.582 1.205.229.067.43.201.43.428v1.459.067 1.459c0 .241-.202.361-.43.428-3.403 1.004-5.757 1.191-8.582 1.205h-.014-.175-.188c-2.906 0-5.286-.174-8.771-1.205-.229-.067-.43-.201-.43-.428V7.528v-.067-1.445c0-.241.202-.375.444-.442zm8.69-.549c-2.663.013-5.044.107-8.165.91-.229.054-.43.201-.43.428V7.46v.067 1.097c0 .241.202.375.43.428 3.094.803 5.475.897 8.111.91h.444c2.637-.013 5.018-.12 8.112-.91.229-.054.43-.201.43-.428V7.528v-.067-1.097c0-.241-.202-.375-.43-.428-3.121-.803-5.502-.91-8.165-.91h-.336 0z"/></g></g></g><defs><clipPath id="A"><path fill="#fff" transform="translate(4.25 3.084)" d="M0 0h26.5v8.833H0z"/></clipPath></defs></svg>