<svg xmlns="http://www.w3.org/2000/svg" xmlns:xlink="http://www.w3.org/1999/xlink" width="36" height="16" fill="none" xmlns:v="https://vecta.io/nano"><g clip-path="url(#F)"><path d="M23.25 10.155a1.8 1.8 0 0 1-1.785 1.807H11.75V4.807A1.8 1.8 0 0 1 13.536 3h9.715v7.155z" fill="#fff"/><path d="M20.086 8.32h.738c.021 0 .07-.007.091-.007.141-.028.26-.156.26-.334 0-.171-.119-.299-.26-.334-.021-.007-.063-.007-.091-.007h-.738v.683z" fill="url(#A)"/><path d="M20.74 3.604c-.703 0-1.279.576-1.279 1.295v1.344h1.806c.042 0 .091 0 .127.007.408.021.71.235.71.605 0 .292-.204.541-.583.59v.014c.415.028.731.263.731.626 0 .391-.352.647-.815.647h-1.982v2.632h1.877c.703 0 1.279-.576 1.279-1.294V3.604h-1.87z" fill="url(#B)"/><path d="M21.084 6.94a.3.3 0 0 0-.26-.306c-.014 0-.049-.007-.07-.007h-.668v.626h.668c.021 0 .063 0 .07-.007a.3.3 0 0 0 .26-.306z" fill="url(#C)"/><path d="M13.669 3.604c-.703 0-1.279.576-1.279 1.295v3.194c.359.178.731.292 1.104.292.443 0 .682-.27.682-.64V6.235h1.097v1.501c0 .583-.359 1.06-1.575 1.06-.738 0-1.315-.164-1.315-.164v2.724h1.877c.703 0 1.279-.576 1.279-1.294V3.604h-1.87z" fill="url(#D)"/><path d="M17.205 3.604c-.703 0-1.279.576-1.279 1.295v1.693c.323-.277.886-.455 1.792-.413.485.021 1.005.156 1.005.156v.548c-.26-.135-.569-.256-.97-.285-.689-.05-1.104.292-1.104.889 0 .605.415.946 1.104.889.401-.028.71-.156.97-.285v.548s-.513.135-1.005.156c-.907.043-1.469-.135-1.792-.413v2.987h1.877c.703 0 1.279-.576 1.279-1.294V3.604h-1.877z" fill="url(#E)"/></g><defs><linearGradient id="A" x1="19.459" y1="7.979" x2="22.618" y2="7.979" xlink:href="#G"><stop stop-color="#007940"/><stop offset=".229" stop-color="#00873f"/><stop offset=".743" stop-color="#40a737"/><stop offset="1" stop-color="#5cb531"/></linearGradient><linearGradient id="B" x1="19.459" y1="7.48" x2="22.618" y2="7.48" xlink:href="#G"><stop stop-color="#007940"/><stop offset=".229" stop-color="#00873f"/><stop offset=".743" stop-color="#40a737"/><stop offset="1" stop-color="#5cb531"/></linearGradient><linearGradient id="C" x1="19.459" y1="6.939" x2="22.618" y2="6.939" xlink:href="#G"><stop stop-color="#007940"/><stop offset=".229" stop-color="#00873f"/><stop offset=".743" stop-color="#40a737"/><stop offset="1" stop-color="#5cb531"/></linearGradient><linearGradient id="D" x1="12.388" y1="7.48" x2="15.596" y2="7.48" xlink:href="#G"><stop stop-color="#1f286f"/><stop offset=".475" stop-color="#004e94"/><stop offset=".826" stop-color="#0066b1"/><stop offset="1" stop-color="#006fbc"/></linearGradient><linearGradient id="E" x1="15.908" y1="7.48" x2="19.023" y2="7.48" xlink:href="#G"><stop stop-color="#6c2c2f"/><stop offset=".174" stop-color="#882730"/><stop offset=".573" stop-color="#be1833"/><stop offset=".859" stop-color="#dc0436"/><stop offset="1" stop-color="#e60039"/></linearGradient><clipPath id="F"><path fill="#fff" transform="translate(11.75 3)" d="M0 0h11.5v9H0z"/></clipPath><linearGradient id="G" gradientUnits="userSpaceOnUse"/></defs></svg>