<svg width="33" height="16" viewBox="0 0 33 16" fill="none" xmlns="http://www.w3.org/2000/svg">
<g clip-path="url(#clip0_36_13920)">
<path d="M17.7496 3.4611C17.6273 3.4611 17.5299 3.42122 17.4159 3.38485C17.3019 3.34852 17.1887 3.25209 17.1223 3.19202L17.3048 2.99352C17.3697 3.04728 17.3918 3.09838 17.4861 3.13236C17.5805 3.16635 17.6545 3.20502 17.7496 3.20502C17.8673 3.20502 17.9552 3.18525 18.0134 3.14575C18.0715 3.10621 18.1005 3.05408 18.1005 2.98925C18.1005 2.94184 18.0843 2.90271 18.0518 2.87187C18.0194 2.84105 17.9782 2.81694 17.9285 2.79955C17.8786 2.78216 17.8107 2.76242 17.7247 2.74027C17.6039 2.71026 17.5062 2.6802 17.4314 2.65019C17.3567 2.62017 17.2926 2.57314 17.239 2.5091C17.1854 2.4451 17.1586 2.35853 17.1586 2.24947C17.1586 2.1578 17.1824 2.0744 17.2299 1.99932C17.2775 1.92425 17.3492 1.86456 17.445 1.82029C17.5409 1.77606 17.6582 1.75391 17.7971 1.75391C17.8937 1.75391 17.9779 1.76788 18.0663 1.80873C18.1576 1.85089 18.266 1.91376 18.3132 1.97562L18.1697 2.17895C18.1003 2.1363 18.0692 2.09183 17.9984 2.06005C17.9263 2.02775 17.8658 2.00999 17.7949 2.00999C17.6786 2.00999 17.5922 2.03055 17.5356 2.07164C17.479 2.11273 17.4507 2.16728 17.4507 2.23525C17.4507 2.28266 17.4669 2.32141 17.4994 2.35143C17.5318 2.38148 17.5729 2.40518 17.6228 2.42257C17.6726 2.43996 17.7405 2.45969 17.8265 2.48185C17.9443 2.51028 18.0409 2.53991 18.1164 2.57076C18.1918 2.60157 18.2564 2.6486 18.31 2.71184C18.3636 2.77505 18.3904 2.86041 18.3904 2.96792C18.3904 3.05959 18.3666 3.14258 18.319 3.21686C18.2715 3.29118 18.1994 3.35045 18.1028 3.39472C18.0062 3.43895 17.8884 3.4611 17.7496 3.4611ZM3.56793 3.4611C3.40641 3.4611 3.26075 3.42436 3.13093 3.35083C3.00111 3.27734 2.89921 3.17539 2.82524 3.04497C2.75127 2.91455 2.7143 2.76874 2.7143 2.60751C2.7143 2.44627 2.75127 2.30047 2.82524 2.17004C2.89921 2.03962 3.00111 1.93767 3.13093 1.86418C3.26075 1.79065 3.40641 1.75391 3.56793 1.75391C3.72944 1.75391 3.8751 1.79065 4.00492 1.86418C4.13474 1.93767 4.23665 2.03924 4.31058 2.16887C4.38455 2.29846 4.42155 2.44469 4.42155 2.60751C4.42155 2.77032 4.38455 2.91655 4.31058 3.04614C4.23665 3.17577 4.13474 3.27734 4.00492 3.35083C3.8751 3.42436 3.72944 3.4611 3.56793 3.4611ZM12.2964 3.4611C12.1349 3.4611 11.9892 3.42436 11.8594 3.35083C11.7296 3.27734 11.6277 3.17539 11.5538 3.04497C11.4798 2.91455 11.4428 2.76874 11.4428 2.60751C11.4428 2.44627 11.4798 2.30047 11.5538 2.17004C11.6277 2.03962 11.7296 1.93767 11.8594 1.86418C11.9892 1.79065 12.1349 1.75391 12.2964 1.75391C12.458 1.75391 12.6036 1.79065 12.7334 1.86418C12.8633 1.93767 12.9651 2.03924 13.0391 2.16887C13.1131 2.29846 13.15 2.44469 13.15 2.60751C13.15 2.77032 13.1131 2.91655 13.0391 3.04614C12.9651 3.17577 12.8633 3.27734 12.7334 3.35083C12.6036 3.42436 12.458 3.4611 12.2964 3.4611ZM1.62064 2.74265L1.36931 3.01295V3.4374H1.07495V1.77761H1.36931V2.62883L2.15276 1.77761H2.48333L1.81764 2.51976L2.52409 3.4374H2.17994L1.62064 2.74265ZM4.89252 1.77761H5.18688V3.4374H4.89252V1.77761ZM14.6581 3.4374L14.2919 2.85737C14.2783 2.85882 14.258 2.85955 14.2308 2.85955H13.9154V3.4374H13.621V1.77761H14.2731C14.4105 1.77761 14.5301 1.79945 14.632 1.84306C14.7339 1.88667 14.812 1.94923 14.8664 2.03065C14.9207 2.11208 14.9479 2.20879 14.9479 2.32075C14.9479 2.43565 14.9209 2.53619 14.8607 2.61741C14.7673 2.74348 14.6768 2.76211 14.5682 2.80283L14.9751 3.4374H14.6581ZM7.18168 1.77761V3.4374H6.93941L6.06542 2.31351V3.4374H5.77333V1.77761H6.0156L6.88959 2.9015V1.77761H7.18168ZM15.9804 2.74265L15.7291 3.01295V3.4374H15.4347V1.77761H15.7291V2.62883L16.5125 1.77761H16.8431L16.1774 2.51976L16.8838 3.4374H16.5397L15.9804 2.74265ZM3.56793 3.19078C3.67359 3.19078 3.76868 3.1659 3.85323 3.11611C3.93774 3.06632 4.00416 2.99677 4.05247 2.90744C4.10077 2.81814 4.12492 2.71816 4.12492 2.60751C4.12492 2.49685 4.10077 2.39687 4.05247 2.30757C4.00416 2.21824 3.93774 2.14869 3.85323 2.0989C3.76868 2.04911 3.67359 2.02424 3.56793 2.02424C3.46226 2.02424 3.36717 2.04911 3.28263 2.0989C3.19808 2.14869 3.13169 2.21824 3.08335 2.30757C3.03505 2.39687 3.0109 2.49685 3.0109 2.60751C3.0109 2.71816 3.03505 2.81814 3.08335 2.90744C3.13169 2.99677 3.19808 3.06632 3.28263 3.11611C3.36717 3.1659 3.46226 3.19078 3.56793 3.19078ZM12.2964 3.19078C12.4021 3.19078 12.4972 3.1659 12.5817 3.11611C12.6663 3.06632 12.7327 2.99677 12.781 2.90744C12.8293 2.81814 12.8534 2.71816 12.8534 2.60751C12.8534 2.49685 12.8293 2.39687 12.781 2.30757C12.7327 2.21824 12.6663 2.14869 12.5817 2.0989C12.4972 2.04911 12.4021 2.02424 12.2964 2.02424C12.1908 2.02424 12.0957 2.04911 12.0112 2.0989C11.9266 2.14869 11.8602 2.21824 11.8119 2.30757C11.7636 2.39687 11.7394 2.49685 11.7394 2.60751C11.7394 2.71816 11.7636 2.81814 11.8119 2.90744C11.8602 2.99677 11.9266 3.06632 12.0112 3.11611C12.0957 3.1659 12.1908 3.19078 12.2964 3.19078ZM14.6513 2.32196C14.6513 2.23084 14.6181 2.16083 14.5516 2.11187C14.4852 2.06291 14.3879 2.03845 14.2596 2.03845H13.9154V2.60751H14.2596C14.3879 2.60751 14.4852 2.5827 14.5516 2.53305C14.6181 2.48343 14.6513 2.41305 14.6513 2.32196Z" fill="#8E8E8E"/>
<path fill-rule="evenodd" clip-rule="evenodd" d="M10.5276 3.70451C10.4905 3.82051 10.3866 3.89869 10.2698 3.89869C10.2562 3.89869 10.2426 3.89869 10.2291 3.89869C10.1122 3.89869 10.0084 3.82054 9.97123 3.70454C9.77921 3.10533 9.20874 1.3252 9.20874 1.3252L10.2492 3.46088L11.2897 1.3252C11.2897 1.3252 10.7196 3.10523 10.5276 3.70451Z" fill="#9E2C34"/>
<path fill-rule="evenodd" clip-rule="evenodd" d="M8.87208 3.70451C8.83495 3.82051 8.73113 3.89869 8.61429 3.89869C8.60072 3.89869 8.58708 3.89869 8.57354 3.89869C8.45667 3.89869 8.35291 3.82054 8.31572 3.70454C8.12369 3.10533 7.55322 1.3252 7.55322 1.3252L8.5937 3.46088L9.63415 1.3252C9.63415 1.3252 9.06404 3.10523 8.87208 3.70451Z" fill="#2B486D"/>
<path d="M8.59348 2.23186C8.73342 2.23186 8.84687 2.11306 8.84687 1.96652C8.84687 1.81997 8.73342 1.70117 8.59348 1.70117C8.45354 1.70117 8.34009 1.81997 8.34009 1.96652C8.34009 2.11306 8.45354 2.23186 8.59348 2.23186Z" fill="#9E2C34"/>
<path d="M10.2492 2.23186C10.3892 2.23186 10.5026 2.11306 10.5026 1.96652C10.5026 1.81997 10.3892 1.70117 10.2492 1.70117C10.1093 1.70117 9.99585 1.81997 9.99585 1.96652C9.99585 2.11306 10.1093 2.23186 10.2492 2.23186Z" fill="#2B486D"/>
<path fill-rule="evenodd" clip-rule="evenodd" d="M2.22264 5.86407C1.94875 6.00948 1.58066 6.36143 1.40465 6.64609C1.09096 7.15318 1.08373 7.24309 1.04283 11.1039L1.00098 15.0441H2.16756H3.33401V11.4494V7.85462L4.57245 9.08521L5.81101 10.3158L5.76521 8.72929C5.72404 7.30668 5.6845 7.09165 5.38116 6.64664C4.68969 5.63231 3.30497 5.28913 2.22264 5.86407Z" fill="#FE1D33"/>
<path fill-rule="evenodd" clip-rule="evenodd" d="M8.20171 5.53652C8.14895 5.58956 8.10573 7.20939 8.10573 9.13621V12.6394L6.93751 11.4775L5.76929 10.3155L5.81278 11.9023C5.8519 13.3291 5.89062 13.54 6.19709 13.9944C7.05585 15.2677 8.94758 15.3896 9.91485 14.234C10.5211 13.5097 10.5761 13.0573 10.5323 9.1506L10.4915 5.51871L9.39461 5.47937C8.79121 5.45772 8.25447 5.48335 8.20171 5.53652ZM26.756 5.5871C24.8371 5.92397 23.1622 7.74869 22.8986 9.78913C22.6996 11.3306 23.5902 13.26 24.9248 14.178C27.3093 15.8182 30.5645 14.9708 31.8335 12.3796C33.5509 8.87279 30.5911 4.91362 26.756 5.5871ZM14.9905 6.10433C14.5333 6.25591 14.081 6.55825 13.6171 7.02204C13.0413 7.59793 12.8841 7.86724 12.6788 8.62953C12.159 10.5602 12.6152 12.6284 13.7901 13.6683C14.8 14.562 15.2879 14.6726 18.501 14.737L21.3299 14.7227V13.8323V12.9419L18.6373 12.9661C16.2744 12.9253 15.8782 12.886 15.4012 12.6454C14.9174 12.4014 14.2406 11.6318 14.2406 11.3255C14.2406 11.2624 15.8511 11.1945 17.8193 11.1745L21.398 11.1379L21.4387 10.2813L21.4791 9.42471H17.86C15.2567 9.42471 14.2406 9.38112 14.2406 9.26956C14.2406 8.95832 14.7786 8.25291 15.2196 7.98565C15.626 7.73951 15.9602 7.70703 18.501 7.66742L21.3299 7.62315V6.74231V5.86134L18.501 5.86984C16.2562 5.87655 15.5314 5.92493 14.9905 6.10433ZM28.9853 7.65865C31.0891 8.7171 31.07 11.839 28.9534 12.8994C27.6484 13.5531 26.338 13.2871 25.3923 12.1763C23.2831 9.69922 26.0717 6.19273 28.9853 7.65865Z" fill="#073446"/>
</g>
<defs>
<clipPath id="clip0_36_13920">
<rect width="31.7647" height="14.1176" fill="white" transform="translate(0.705811 0.941406)"/>
</clipPath>
</defs>
</svg>
