<svg xmlns="http://www.w3.org/2000/svg" width="36" height="16" fill="none" xmlns:v="https://vecta.io/nano"><g clip-path="url(#A)" fill-rule="evenodd"><path d="M21.127 12.218h-7.285c-.463 0-.842-.399-.842-.886V3.669c0-.487.379-.886.842-.886h7.285c.463 0 .842.399.842.886v7.663c0 .487-.379.886-.842.886z" fill="#e82529"/><g fill="#fefefe"><path d="M14.934 4.559h.425c.032 0 .057.03.053.064l-.197 1.44c-.008.055.033.105.086.105h.746c.021 0 .037.02.034.042l-.058.414c-.003.021-.02.037-.041.037h-.843c-.251 0-.491-.216-.456-.477l.199-1.576c.003-.028.026-.049.053-.049z"/><path d="M16.351 5.134l-.194 1.469c-.003.023.014.044.037.044h.411a.06.06 0 0 0 .058-.053l.193-1.445c.004-.033-.021-.063-.053-.063h-.399c-.026 0-.049.02-.052.048zm.848 1.4c-.127-.005-.186.037-.261.084l.173-1.228c.014-.068.026-.18.082-.237.066-.067.169-.105.679-.107.52-.002.621.392.594.648l-.123.912c-.003.023-.022.04-.044.04h-.402c-.03 0-.052-.027-.048-.058l.093-.672c.023-.145.041-.304.005-.367s-.147-.111-.358-.072l-.156 1.162s-.101-.1-.233-.105z"/><path d="M18.903 4.477h.446c.017 0 .029.015.027.033l-.277 2.115c-.002.016-.015.027-.03.027h-.44c-.018 0-.032-.017-.03-.036l.277-2.114c.002-.014.013-.025.027-.025zm.343 1.272l.504-.621c.016-.02.039-.031.064-.031h.442c.032 0 .049.04.027.065l-.515.602.471 1.066c.017.039-.01.084-.051.084h-.4c-.021 0-.04-.013-.049-.033l-.494-1.132zm-2.303-1.06c-.036.16-.173.279-.317.279s-.253-.13-.217-.29.155-.29.325-.29c.143 0 .245.14.209.3zm.453 2.332c-.036.16-.173.279-.317.279s-.253-.13-.217-.29.155-.29.325-.29c.143 0 .245.14.209.3zm2.159 1.913c-.03.158-.169.276-.32.276a.24.24 0 0 1-.242-.286c.03-.158.149-.286.328-.286.151 0 .264.139.234.297zm-3.798-.788h-.27c-.01 0-.017-.011-.013-.02l.235-.627c.005-.012.021-.009.022.003l.053.614c.001.017-.011.031-.027.031zm.654.788l-.301-1.897c-.013-.083-.081-.144-.161-.144h-.302c-.092 0-.176.057-.214.145l-.812 1.898c-.012.028.008.059.036.058l.422-.003c.029 0 .055-.018.066-.046l.14-.347c.004-.009.013-.016.022-.016h.51c.013 0 .023.01.024.023l.03.328c.003.038.034.067.071.067h.414c.034 0 .061-.032.055-.068z"/><path d="M16.209 9.277l.097.317c.018.052.031.064.065.056.123-.027.42-.12.566-.327.19-.27.216-.747.249-.989l.108-.858c.004-.03-.019-.057-.047-.057h-.378c-.034 0-.062.026-.066.061l-.16 1.202c-.022.137-.027.334-.219.452-.096.059-.145.07-.183.089-.019.009-.041.02-.032.055zm2.08-.731s-.197.071-.292-.004-.103-.228-.047-.448.193-.257.252-.261.17.025.17.025l-.084.688zm.546-1.071c-.128-.034-.342-.107-.686-.081-.318.025-.677.179-.744.839s.22.788.632.806a1.45 1.45 0 0 0 .645-.121c.037-.017.062-.052.067-.094l.152-1.271c.006-.05-.018-.066-.066-.079zm.294.95l.111-1.217c.004-.044.039-.061.08-.061h.383c.036 0 .051.028.041.075l-.234 1.219c-.005.024-.024.04-.047.04h-.286c-.028 0-.051-.026-.048-.056z"/><path d="M14.652 10.671c.076.044.164.057.249.036.336-.084 1.079-.309 2.65-.548 1.974-.3 3.432-.299 3.432-.299l.004-.002s-1.292-.187-3.412.031-3.304.56-3.304.56l.382.222z"/></g></g><defs><clipPath id="A"><path fill="#fff" transform="translate(13 2.75)" d="M0 0h9v9.5H0z"/></clipPath></defs></svg>