<svg xmlns="http://www.w3.org/2000/svg" width="36" height="16" fill="none" xmlns:v="https://vecta.io/nano"><g clip-path="url(#B)"><g fill="#003d79"><path d="M4.42 8.899l-.029-.966h.723l.029.483h.014c.159-.256.462-.554 1.012-.554a.95.95 0 0 1 .91.597h.014c.13-.17.26-.312.419-.398.188-.128.39-.199.665-.199.549 0 1.098.369 1.098 1.406v1.903h-.809V9.396c0-.54-.188-.852-.593-.852-.289 0-.491.199-.578.426-.014.085-.043.185-.043.27v1.946h-.809V9.311c0-.455-.188-.767-.564-.767-.303 0-.52.241-.593.469a.48.48 0 0 0-.058.256v1.918H4.42V8.899zm8.026 1.501c0 .298.014.582.043.781h-.751l-.058-.355h-.014c-.202.256-.549.426-.968.426-.665 0-1.041-.469-1.041-.966 0-.824.737-1.236 1.951-1.222v-.057c0-.213-.087-.568-.665-.568-.318 0-.665.099-.882.241l-.159-.526c.246-.142.665-.284 1.185-.284 1.055 0 1.359.653 1.359 1.364V10.4h0zm-.824-.81c-.593-.014-1.156.114-1.156.611 0 .313.217.469.477.469.332 0 .578-.213.65-.44a.82.82 0 0 0 .029-.185V9.59h0zm1.399-.691l-.029-.966h.723l.043.483h.014c.144-.256.506-.554 1.055-.554.578 0 1.171.369 1.171 1.392v1.918h-.838V9.339c0-.469-.174-.824-.636-.824-.332 0-.564.227-.65.483-.014.085-.014.185-.014.284v1.903h-.838V8.899zm6.577-2.263v3.622l.029.909h-.737l-.029-.511h-.014c-.202.355-.593.582-1.069.582-.78 0-1.402-.653-1.402-1.648 0-1.08.679-1.733 1.474-1.733.448 0 .781.185.925.426h.014V6.636h.809 0zm-.824 2.656c0-.071 0-.142-.014-.213a.73.73 0 0 0-.723-.582c-.535 0-.838.469-.838 1.065s.304 1.023.824 1.023c.332 0 .636-.227.723-.582.014-.071.029-.156.029-.241 0 .014 0-.469 0-.469zm1.417-1.349h.844v3.239h-.844V7.943zm1.428 1.035l-.029-1.037h.723l.029.611h.029c.159-.455.549-.611.896-.611.087 0 .13-.014.202 0v.724c-.072-.014-.145-.028-.246-.028-.405 0-.665.256-.737.611a1.25 1.25 0 0 0-.029.256v1.676h-.838V8.978zm2.237-1.035h.832v3.239h-.832V7.943z"/></g><path d="M23.673 4.019L21.52 5.227c-.622.256-1.084-.057-1.243-.284 0-.014-.015-.014-.015-.028l-.014-.028-.101-.17-.145-.213c-.058-.057-.101-.128-.173-.185-.39-.398-1.026-.668-2.081-.17L15.623 5.34l-1.084.611.564.682c.231.227.679.582 1.373.284l1.908-1.08c1.619-.881 2.428-.043 2.789.526.015.014.029.043.029.057l.015.014.043.071c.174.256.448.426.766.412.173 0 .303-.057.477-.156l1.835-1.051c1.648-.881 2.457 0 2.804.568l.087.142c.173.227.405.384.708.369.202 0 .419-.128.463-.142l2.211-1.25s-.231-.341-.694-.852c-.419-.469-.853-.256-1.214-.085l-1.214.668c-.578.241-1.04-.028-1.214-.241-.014-.028-.029-.043-.043-.071l-.043-.071a3.54 3.54 0 0 0-.231-.341.7.7 0 0 0-.173-.185c-.246-.241-.578-.44-1.055-.44-.289-.028-.636.043-1.055.241z" fill="url(#A)"/></g><defs><linearGradient id="A" x1="15.876" y1="8.653" x2="37.213" y2="-1.378" gradientUnits="userSpaceOnUse"><stop stop-color="#fdb913"/><stop offset=".225" stop-color="#ffcb05"/><stop offset=".393" stop-color="#faa61a"/><stop offset=".528" stop-color="#ffcb05"/><stop offset=".646" stop-color="#faa61a"/><stop offset=".764" stop-color="#ffcb05"/></linearGradient><clipPath id="B"><path fill="#fff" transform="translate(4.25 3.75)" d="M0 0h26.5v7.5H0z"/></clipPath></defs></svg>