<svg xmlns="http://www.w3.org/2000/svg" width="36" height="16" fill="none" xmlns:v="https://vecta.io/nano"><g clip-path="url(#A)"><path d="M15.617 8.341V7.296c0-.394-.244-.659-.637-.659-.23-.015-.444.098-.57.295a.6.6 0 0 0-.533-.295c-.193-.008-.37.083-.474.25v-.205h-.355v1.667h.355v-.932c0-.288.156-.439.4-.439s.356.159.356.439v.924h.356v-.924c0-.288.163-.439.4-.439s.356.159.356.439v.924h.348 0zm5.282-1.659h-.578v-.508h-.356v.508h-.333v.333h.333v.758c0 .386.148.614.563.614.155 0 .311-.045.444-.129l-.104-.311c-.096.061-.2.091-.311.091-.178 0-.237-.114-.237-.28v-.75h.578v-.326zm3.015-.045a.48.48 0 0 0-.43.242v-.205h-.348v1.659h.355v-.924c0-.28.119-.424.348-.424a.76.76 0 0 1 .222.038l.111-.341a.78.78 0 0 0-.259-.045zm-4.563.174c-.2-.121-.43-.182-.667-.174-.415 0-.681.205-.681.53 0 .273.2.439.563.492l.163.023c.193.03.289.083.289.174 0 .129-.126.205-.37.205a.83.83 0 0 1-.541-.174l-.163.28a1.23 1.23 0 0 0 .704.22c.467 0 .741-.227.741-.545 0-.295-.215-.447-.57-.5l-.163-.023c-.156-.023-.274-.053-.274-.167 0-.121.119-.197.311-.197.178 0 .356.053.504.144l.156-.288zm9.474-.174a.48.48 0 0 0-.43.242v-.205h-.348v1.659h.355v-.924c0-.28.119-.424.348-.424a.76.76 0 0 1 .222.038l.111-.341a.78.78 0 0 0-.259-.045zm-4.556.871c0 .508.341.871.867.871a.86.86 0 0 0 .585-.197l-.17-.295c-.126.098-.274.144-.422.152-.281 0-.489-.212-.489-.53s.207-.53.489-.53c.155 0 .304.053.422.152l.17-.295c-.163-.136-.37-.212-.585-.197a.83.83 0 0 0-.867.871zm3.311 0v-.833h-.356v.205a.62.62 0 0 0-.511-.242c-.452 0-.815.364-.815.871s.356.871.815.871a.61.61 0 0 0 .511-.242v.205h.356v-.833zm-1.311 0c0-.295.185-.53.496-.53.289 0 .489.227.489.53s-.2.53-.489.53c-.311 0-.496-.235-.496-.53zm-4.267-.871c-.474 0-.807.356-.807.871 0 .53.348.871.83.871.244.008.481-.076.667-.235l-.17-.265c-.133.114-.304.174-.474.174-.23 0-.437-.106-.489-.409h1.207c0-.045.007-.091.007-.136-.007-.515-.319-.871-.77-.871zm-.007.326c.23 0 .37.144.415.402h-.844c.03-.242.178-.402.43-.402zm8.867.545v-1.5h-.356v.871a.62.62 0 0 0-.511-.242c-.452 0-.815.364-.815.871s.356.871.815.871a.61.61 0 0 0 .511-.242v.205h.356v-.833zm.415.682c.015 0 .03 0 .037.008.015.008.022.015.03.023s.015.023.022.03c.007.023.007.053 0 .083-.007.015-.015.023-.022.03s-.022.015-.03.023c-.015.008-.03.008-.037.008-.044 0-.081-.023-.096-.068-.007-.023-.007-.053 0-.083.007-.023.03-.045.059-.053h.037zm0 .182c.007 0 .022 0 .03-.008s.015-.008.022-.015c.03-.03.03-.083 0-.114-.007-.008-.015-.015-.022-.015-.007-.008-.022-.008-.03-.008s-.022 0-.03.008c-.044.015-.059.068-.044.106.007.008.007.015.015.023s.015.015.022.015c.015.008.022.008.037.008zm.007-.129c.007 0 .022 0 .03.008s.008.015.008.023 0 .015-.008.023-.015.008-.022.008l.03.038h-.022l-.03-.038h-.007v.038h-.022v-.098h.044zm-.03.015v.023h.022l.022-.008c-.015-.008-.015-.008-.022-.008l-.022-.008zm-1.704-.75c0-.295.185-.53.496-.53.289 0 .489.227.489.53s-.2.53-.489.53c-.311 0-.496-.235-.496-.53zm-11.941 0v-.833h-.355v.205a.62.62 0 0 0-.511-.242c-.452 0-.815.364-.815.871s.355.871.815.871a.61.61 0 0 0 .511-.242v.205h.355v-.833zm-1.319 0c0-.295.185-.53.496-.53.289 0 .489.227.489.53s-.2.53-.489.53c-.311 0-.496-.235-.496-.53z" fill="#231f20"/><path d="M8.531 5.531H6.391v3.932h2.141V5.531z" fill="#ff5f00"/><path d="M6.521 7.501c0-.765.341-1.492.933-1.962-1.059-.856-2.6-.667-3.43.417s-.652 2.659.415 3.508c.889.712 2.133.712 3.022 0-.6-.47-.941-1.197-.941-1.962z" fill="#eb001b"/><g fill="#f79e1b"><path d="M11.413 7.5c0 1.379-1.096 2.5-2.444 2.5a2.4 2.4 0 0 1-1.511-.538c1.059-.856 1.244-2.424.415-3.508a2.47 2.47 0 0 0-.415-.424c1.059-.856 2.6-.667 3.43.417.341.447.526.992.526 1.553z"/><path d="M11.173 9.046v-.083h.03v-.015h-.074v.015h.03v.083h.015zm.155 0v-.098h-.022l-.03.068-.03-.068h-.022v.098h.015V8.97l.03.061h.015l.03-.061v.076h.015z"/></g></g><defs><clipPath id="A"><path fill="#fff" transform="translate(3.5 5)" d="M0 0h28v5H0z"/></clipPath></defs></svg>