<svg xmlns="http://www.w3.org/2000/svg" width="36" height="16" fill="#4d3490" xmlns:v="https://vecta.io/nano"><path d="M26.445 3.25c-2.377 0-4.305 1.893-4.305 4.224s1.928 4.224 4.305 4.224 4.304-1.893 4.304-4.224-1.928-4.224-4.304-4.224zm0 7.096c-1.479 0-2.68-1.288-2.68-2.859s1.201-2.859 2.68-2.859 2.68 1.288 2.68 2.859-1.201 2.859-2.68 2.859zM8.554 3.25c-2.377 0-4.304 1.893-4.304 4.224s1.928 4.224 4.304 4.224 4.304-1.893 4.304-4.224S10.931 3.25 8.554 3.25zm0 7.096c-1.479 0-2.68-1.288-2.68-2.859s1.202-2.859 2.68-2.859 2.68 1.288 2.68 2.859-1.201 2.859-2.68 2.859zm10.327-5.487h.858l-1.915 4.585-2.007-4.585h.779V3.494h-3.393v1.365h.872l2.628 6.053c.224.502.726.837 1.294.837h.357l2.997-6.89.251-.58v-.786h-2.72v1.365h0z"/></svg>