<svg xmlns="http://www.w3.org/2000/svg" width="36" height="16" fill="#000" xmlns:v="https://vecta.io/nano"><path d="M13.203 4.47h6.06v3.674h-2.542l2.543 2.351h-2.16L14.61 8.143v2.351h-1.407V6.76h4.443v-.894h-4.443V4.47zm6.688 6.024h1.481V4.457h-1.481v6.037zM8.031 9.037V4.47h-1.16a.36.36 0 0 0-.37.355l-.012 5.302c0 .196.16.367.358.367h3.443V9.037H8.031zM11.055 12h1.518V8.976h-1.518V12h0zM8.77 4.469v1.506h2.283v2.253h1.518V4.837c0-.196-.161-.355-.358-.368H8.77h0zm0 2.241v1.53h.383 1.123V6.71H8.77zm1.061 1.065h-.457-.16v-.612h.617v.612zm18.81 1.201v2.253c0 .196-.173.355-.37.355H26v.367h2.641.013c.185 0 .345-.159.345-.355v-.012-2.608h-.358zM5.87 5.962V3.709c0-.196.148-.343.346-.343h2.271l.012-.355-2.629-.012a.36.36 0 0 0-.37.367v2.596l.358.012.012-.012zm22.132.001V4.469h-5.986V6.71v1.506h3.987v.747h-3.987v1.506h5.986V6.722h-3.986v-.759h3.986z"/></svg>