<svg xmlns="http://www.w3.org/2000/svg" width="36" height="16" fill="none" xmlns:v="https://vecta.io/nano"><g clip-path="url(#A)"><g fill-rule="evenodd"><path d="M7.885 4.304h6.865c.457 0 .83.376.83.834v4.828c0 .459-.374.834-.83.834H7.686c-.457 0-.83-.376-.83-.834V4.003c0-.217.178-.367.392-.394l6.33-.812c.216 0 .392.177.392.394v.675H7.489c0 .283.084.438.395.438h.001zm3.849 5.29c-.577.111-1.32-.082-1.723-.519-.182-.197.112-.494.295-.295.271.294.756.431 1.151.422.504-.011.951-.471.665-.986-.396-.712-1.371-.512-1.873-1.072-.405-.452-.213-1.162.263-1.475.496-.328 1.353-.316 1.762.155.176.202-.119.499-.295.295-.33-.38-1.109-.328-1.407.063-.423.559.21.859.652.994.608.185 1.283.524 1.393 1.224.088.564-.346 1.09-.885 1.194z" fill="#ee4e2c"/><path d="M11.734 9.594c-.577.111-1.32-.082-1.723-.519-.182-.197.112-.494.295-.295.271.294.755.431 1.151.422.504-.011.951-.471.666-.986-.395-.712-1.371-.512-1.873-1.071-.405-.452-.213-1.162.263-1.476.496-.328 1.353-.316 1.762.155.176.202-.119.499-.295.295-.33-.38-1.109-.328-1.406.063-.423.559.21.859.652.994.608.185 1.283.524 1.393 1.224.088.564-.346 1.09-.884 1.194h-.001z" fill="#fefefe"/></g><g fill="#ee4e2c"><path d="M23.556 4.008c-.246 0-.466.105-.617.271v-.192c0-.174-.279-.175-.279 0v2.278c0 .175.279.175.279 0V5.35c.151.166.372.27.617.27.456 0 .826-.361.826-.806s-.371-.806-.826-.806zm0 1.32c-.292 0-.528-.232-.528-.514a.52.52 0 0 1 .443-.508c.031-.005.057-.007.084-.007a.53.53 0 0 1 .483.308c.03.065.045.135.045.207a.52.52 0 0 1-.527.514v.001zm-2.052.291c-.456 0-.826-.361-.826-.806s.371-.806.826-.806.826.361.826.806-.371.806-.826.806zm0-1.32c-.291 0-.528.23-.528.514s.236.514.528.514.528-.23.528-.514-.236-.514-.528-.514zm6.642.499c-.007-.37-.202-.705-.604-.779-.347-.064-.753.114-.901.431-.154.329-.089.781.214 1.01.328.248.838.172 1.175-.012.157-.085.016-.319-.14-.235-.213.116-.491.174-.73.096-.178-.058-.278-.208-.309-.377h1.157c.074 0 .14-.063.139-.136l-.001.001zm-1.286-.136a.24.24 0 0 1 .008-.03c.067-.221.294-.349.524-.355.265-.007.414.171.46.385h-.992zm-.566.138c-.007-.37-.202-.705-.604-.779-.347-.064-.753.114-.901.431-.154.329-.089.781.214 1.01.328.248.838.172 1.175-.012.157-.085.016-.319-.14-.235-.213.116-.491.174-.73.096-.178-.058-.278-.208-.309-.377h1.157c.074 0 .14-.063.139-.136l-.001.001zm-1.286-.136c.002-.01.005-.021.008-.03.067-.221.294-.349.524-.355.265-.007.414.171.46.385h-.992zm-4.658-.126v.941c0 .178-.279.178-.279 0v-.923c-.009-.182-.165-.266-.17-.269-.198-.086-.558-.046-.772.226v.965c0 .178-.278.178-.278 0V3.063c0-.177.278-.177.278 0v1.087c.341-.228.775-.203.979-.063a.52.52 0 0 0 .241.454l.001-.001zm-1.953-1.365c-.272-.302-.845-.31-1.176-.099-.317.202-.446.659-.176.948.335.359.986.232 1.251.687.191.33-.108.626-.444.633-.263.005-.587-.082-.769-.272a.14.14 0 0 0-.197.19c.269.28.766.404 1.151.332.359-.067.65-.404.591-.767-.074-.45-.524-.667-.931-.786-.296-.086-.719-.28-.435-.638.199-.251.719-.285.939-.04.118.131.314-.06.196-.19v.001z"/><path fill-rule="evenodd" d="M25.649 12.204h-.884l.945-1.796-1.552-2.947h.958l1.073 2.036 1.073-2.036h.884l-2.497 4.742zM16.848 10.8h.74v-1.36h.998c1.035 0 1.875-.729 1.875-1.63s-.84-1.63-1.875-1.63h-1.738v4.62zm.74-2.104V6.924h.998c.562 0 1.019.396 1.019.886s-.456.886-1.019.886h-.998zm5.645-1.204h.65v3.279h-.65v-.368a1.65 1.65 0 0 1-1.075.397c-.917 0-1.661-.747-1.661-1.669s.743-1.669 1.661-1.669c.411 0 .785.149 1.075.397v-.368.001zm-1.075.674c.53 0 .96.432.96.965s-.43.965-.96.965-.96-.432-.96-.965.43-.965.96-.965z"/></g></g><defs><clipPath id="A"><path fill="#fff" transform="translate(6.75 2.75)" d="M0 0h21.5v9.5H0z"/></clipPath></defs></svg>