<svg xmlns="http://www.w3.org/2000/svg" width="36" height="16" fill="none" xmlns:v="https://vecta.io/nano"><g clip-path="url(#A)"><g fill="#004686"><path d="M13.594 11.402l1.345-7.769h2.14l-1.345 7.769h-2.14zm9.929-7.574a5.58 5.58 0 0 0-1.92-.328c-2.116 0-3.62 1.056-3.632 2.561-.012 1.117 1.064 1.736 1.883 2.112.832.376 1.113.619 1.113.959 0 .522-.673.753-1.284.753a4.5 4.5 0 0 1-2.018-.413l-.281-.121-.306 1.736c.501.218 1.431.401 2.397.413 2.262 0 3.718-1.044 3.742-2.646.012-.886-.562-1.554-1.798-2.112-.746-.364-1.211-.595-1.211-.959 0-.328.391-.668 1.235-.668.697-.012 1.211.146 1.602.291l.196.085.281-1.663zm5.504-.182h-1.663c-.514 0-.893.134-1.125.643l-3.192 7.114h2.25l.453-1.165h2.752l.257 1.165h1.993l-1.724-7.757zm-2.641 5.002l.856-2.173c-.012.024.171-.449.281-.741l.147.668.501 2.246h-1.785zm-14.59-5.002L9.692 8.939l-.22-1.08c-.404-1.238-1.614-2.586-2.984-3.253l1.92 6.786h2.275l3.387-7.745h-2.275z"/></g><path d="M7.735 3.633H4.274l-.024.158c2.69.643 4.476 2.197 5.21 4.067l-.746-3.569c-.135-.486-.514-.631-.978-.656z" fill="#ef9b11"/></g><defs><clipPath id="A"><path fill="#fff" transform="translate(4.25 3.5)" d="M0 0h26.5v8H0z"/></clipPath></defs></svg>